<svg width="56" height="56" viewBox="0 0 56 56" fill="none" xmlns="http://www.w3.org/2000/svg">
<g opacity="0.5">
<path d="M14.2552 51.5055C12.2139 52.322 10.1726 53.1386 8.13126 53.9551C7.62093 54.1592 7.21267 54.2613 6.70234 54.3634C2.82385 55.5881 -0.850509 51.9138 0.374278 48.2394C1.29287 45.4837 2.31352 42.83 3.33418 40.1762C6.80441 31.3986 10.3767 22.5189 13.949 13.7413C14.8676 11.3938 16.8068 10.169 19.3585 9.96486C22.1142 9.76072 24.6659 10.5772 27.0134 11.802C34.3621 15.6805 39.9757 21.2941 43.3439 29.0511C44.1604 30.8883 44.5686 32.8275 44.3645 34.8688C44.1604 37.4205 42.7315 39.1556 40.384 40.1762C37.5261 41.401 34.5662 42.6258 31.7084 43.8506C31.5043 43.9527 31.3001 44.0547 31.096 44.1568C31.3001 44.6671 31.5043 45.2795 31.7084 45.7899C32.627 48.3415 31.7084 50.8931 29.2588 52.1179C27.4216 53.1386 25.4824 53.9551 23.5432 54.7716C22.8287 55.0778 22.1142 55.4861 21.2977 55.6902C19.0523 56.4047 16.7048 55.5881 15.3779 53.6489C15.0717 53.0365 14.6635 52.322 14.2552 51.5055ZM33.2394 39.768C24.6659 35.9916 18.4399 29.8676 14.4593 21.2941C14.3573 21.3962 14.3573 21.4983 14.2552 21.6003C10.9891 29.8676 7.62093 38.1349 4.35483 46.4022C3.94657 47.4229 3.64037 48.4436 3.43624 49.4642C3.23211 50.5869 4.35483 51.5055 5.37549 51.3014C6.19201 51.0973 6.90647 50.8931 7.723 50.5869C12.1118 48.7498 16.5006 46.9126 20.8894 44.9733C24.9721 43.3403 29.1568 41.6052 33.2394 39.768ZM37.1179 37.3184C40.0778 37.4205 41.3026 36.2978 41.0984 33.8482C40.9964 32.6234 40.6902 31.3986 40.2819 30.2759C39.1592 27.2139 37.2199 24.4582 35.0766 22.1107C32.0146 18.7425 28.4423 15.7826 24.1555 14.0475C22.9308 13.5371 21.706 13.231 20.3791 13.1289C17.9295 12.8227 16.7048 14.1495 16.7048 16.497C16.7048 18.2322 17.3172 19.8652 18.0316 21.3962C20.9915 27.316 25.3803 31.8069 30.9939 35.073C33.1373 36.2978 35.2807 37.2164 37.1179 37.3184ZM17.2151 50.1787C17.6234 50.8931 17.9296 51.5055 18.2357 52.0159C18.7461 52.7303 19.5626 53.1386 20.3791 52.7303C22.9308 51.6076 25.4824 50.4849 27.932 49.2601C28.6464 48.8518 28.9526 48.1374 28.7485 47.3208C28.6464 46.7084 28.3402 46.0961 28.034 45.4837C24.4617 47.1167 20.8895 48.6477 17.2151 50.1787Z" fill="#8B5CF6"/>
<path d="M32.729 4.45371C32.729 5.27024 32.729 6.08676 32.729 6.90329C32.729 7.92394 32.0145 8.53633 31.198 8.6384C30.2794 8.6384 29.5649 8.02601 29.5649 7.00535C29.5649 5.3723 29.5649 3.63719 29.5649 2.00414C29.5649 0.983487 30.2794 0.371094 31.198 0.371094C32.1166 0.371094 32.729 1.08555 32.831 2.10621C32.729 2.82067 32.729 3.63719 32.729 4.45371Z" fill="#8B5CF6"/>
<path d="M43.8547 13.8433C43.0382 13.8433 42.5279 13.5371 42.2217 12.9247C41.9155 12.3123 41.9155 11.6999 42.3237 11.2917C43.6506 9.96481 44.8754 8.63795 46.3043 7.3111C46.9167 6.80077 47.8353 6.90284 48.3456 7.41317C48.8559 7.92349 49.0601 8.94415 48.4477 9.45448C47.2229 10.7813 45.896 12.1082 44.4671 13.435C44.4671 13.6392 44.0589 13.7412 43.8547 13.8433Z" fill="#8B5CF6"/>
<path d="M51.4073 26.3974C50.5908 26.3974 49.7743 26.3974 48.9578 26.3974C47.9371 26.3974 47.3247 25.683 47.3247 24.7644C47.3247 23.8458 48.0392 23.2334 48.9578 23.2334C50.6929 23.2334 52.428 23.2334 54.061 23.2334C54.9796 23.2334 55.592 23.9479 55.592 24.8664C55.592 25.785 54.9796 26.3974 53.959 26.4995C53.1424 26.3974 52.3259 26.3974 51.4073 26.3974Z" fill="#8B5CF6"/>
</g>
</svg>
