<svg width="42" height="58" viewBox="0 0 42 58" fill="none" xmlns="http://www.w3.org/2000/svg">
<g opacity="0.5">
<path d="M31.5033 52.1196C30.6275 53.5585 29.7829 54.9349 28.9539 56.3112C28.7037 56.7335 28.4065 57.0933 27.8591 57.0307C27.3273 56.9681 27.1396 56.5615 26.9832 56.1235C25.3409 51.5878 23.683 47.0364 22.0251 42.5006C21.9626 42.3129 21.8844 42.1409 21.8218 42.0001C21.1649 42.0001 20.5393 42.0001 19.8668 42.0001C19.6321 42.657 19.3663 43.3608 19.1004 44.0647C17.6458 48.053 16.1912 52.0414 14.7523 56.0297C14.7366 56.0923 14.7054 56.1392 14.6897 56.1861C14.5646 56.6397 14.3144 56.9681 13.8139 57.0151C13.3134 57.062 13.0318 56.7492 12.7972 56.3582C12.0465 55.1225 11.2957 53.8869 10.545 52.6513C10.4355 52.4636 10.326 52.2916 10.2009 52.0883C8.63682 52.6044 7.10405 53.1206 5.58692 53.6367C5.1177 53.7931 4.67976 53.9182 4.27311 53.5272C3.86645 53.1206 3.99158 52.6826 4.16362 52.229C5.82152 47.7089 7.44814 43.1888 9.12168 38.6687C9.27809 38.262 9.26245 37.9492 8.99656 37.5895C8.73067 37.2141 8.5117 36.7918 8.30837 36.3695C7.77659 35.2278 6.932 34.3988 5.75896 33.8983C5.66512 33.867 5.58692 33.8201 5.49307 33.7732C3.24083 32.7096 2.28676 31.2394 2.47444 28.7526C2.59957 27.0477 2.22419 25.6088 1.2232 24.2012C-0.121891 22.3399 -0.0593284 20.3379 1.28576 18.4924C2.23983 17.1942 2.59957 15.8178 2.47444 14.2225C2.27112 11.5636 3.16263 10.109 5.60256 8.99853C6.932 8.38855 7.8548 7.46575 8.44914 6.12067C9.5127 3.75894 10.9986 2.82051 13.5949 3.03948C15.2371 3.1646 16.6135 2.75795 17.9742 1.83515C20.0544 0.427501 21.6654 0.443142 23.7769 1.88207C25.0907 2.77359 26.4201 3.1646 27.9998 3.03948C30.6744 2.83615 32.1446 3.7433 33.2394 6.15195C33.8338 7.4814 34.7722 8.40419 36.1017 8.99853C38.4634 10.0621 39.4018 11.5479 39.1985 14.1286C39.0734 15.7709 39.4331 17.1785 40.4028 18.508C41.7635 20.3849 41.7635 22.3869 40.4028 24.2637C39.4331 25.6088 39.0734 27.0008 39.1985 28.6431C39.4018 31.2238 38.4634 32.694 36.086 33.7732C34.8191 34.3519 33.8494 35.1808 33.302 36.4634C33.2551 36.5885 33.1925 36.7136 33.1143 36.8231C32.3792 37.6833 32.4887 38.5279 32.8797 39.5445C34.475 43.7362 35.9765 47.9592 37.5093 52.1665C37.6814 52.6201 37.8221 53.0736 37.4155 53.4803C37.0244 53.8869 36.5865 53.7775 36.1173 53.6211C34.6314 53.1675 33.0987 52.6513 31.5033 52.1196ZM37.3216 15.0045C37.4937 12.1266 37.2591 11.6887 34.913 10.5469C33.3802 9.7962 32.3323 8.65444 31.6285 7.12166C30.7526 5.22915 30.0488 4.83814 27.9686 4.93198C27.2491 4.96326 26.514 4.96326 25.8102 4.88506C24.7153 4.7443 23.8238 4.14996 22.9167 3.57125C21.2431 2.46077 20.4767 2.42949 19.0065 3.46177C17.3173 4.63481 15.55 5.15095 13.5167 4.96326C11.7024 4.80686 10.9047 5.323 10.1696 6.9809C9.38757 8.74828 8.15197 9.98389 6.38458 10.7659C4.6954 11.5167 4.25747 12.3143 4.35131 14.1756C4.35131 14.2538 4.35131 14.332 4.36695 14.4102C4.58592 16.287 4.0385 17.9137 2.9593 19.4621C1.84882 21.0574 1.89574 21.8238 2.94366 23.4817C3.08443 23.7163 3.25647 23.9353 3.39724 24.1542C4.02286 25.1552 4.41387 26.2188 4.39823 27.4075C4.38259 27.9705 4.38259 28.5336 4.33567 29.0967C4.24183 30.473 4.86745 31.4115 6.07177 32.0058C6.22818 32.084 6.38458 32.1622 6.54099 32.2404C8.21453 32.9599 9.37193 34.1798 10.1227 35.8377C10.9203 37.6364 11.6867 38.1213 13.6418 37.9649C15.6282 37.7928 17.3799 38.2307 18.9596 39.4507C20.1796 40.3891 21.4934 40.4204 22.7446 39.482C24.3869 38.2464 26.1855 37.7772 28.2345 37.9649C30.0488 38.1369 30.8464 37.6208 31.5815 35.9472C32.3636 34.1798 33.5992 32.9442 35.3666 32.1622C37.0244 31.4271 37.478 30.6451 37.3998 28.8151C37.3998 28.7369 37.3998 28.6587 37.3842 28.5805C37.1652 26.688 37.697 25.0301 38.7918 23.466C39.918 21.8551 39.8397 21.1043 38.8075 19.4464C38.7136 19.29 38.6041 19.1649 38.5103 19.0085C37.5875 17.726 37.1809 16.3183 37.3216 15.0045ZM13.5167 53.9651C15.0964 49.6171 16.6292 45.4098 18.1619 41.1868C17.0514 40.3579 15.9253 39.6853 14.502 39.7948C13.2664 39.8886 12.0465 39.9199 10.8265 39.4351C9.37193 43.4078 7.94864 47.3335 6.47843 51.4001C7.77659 50.9622 8.88707 50.5868 10.0132 50.2114C10.8265 49.9299 11.1237 50.0394 11.5616 50.7588C12.2029 51.7911 12.8129 52.8077 13.5167 53.9651ZM28.1875 53.9339C28.3283 53.7149 28.4378 53.5741 28.5316 53.4021C29.079 52.5106 29.6265 51.6034 30.1739 50.7119C30.5805 50.0394 30.8933 49.9455 31.6441 50.1801C31.8318 50.2427 32.0038 50.3053 32.1915 50.3678C33.1612 50.6963 34.1309 51.0091 35.2258 51.3845C33.7556 47.3179 32.3166 43.4078 30.8777 39.4351C29.6421 39.9356 28.3909 39.873 27.1396 39.7948C25.7163 39.6853 24.6058 40.4048 23.5266 41.1868C25.0751 45.4254 26.6078 49.6327 28.1875 53.9339Z" fill="#8B5CF6"/>
<path d="M20.8053 36.448C12.5001 36.4168 5.82161 29.6757 5.85289 21.3236C5.88417 13.128 12.6722 6.41817 20.8835 6.46509C29.2043 6.51201 35.8828 13.2531 35.8359 21.5895C35.8046 29.7852 29.0478 36.4637 20.8053 36.448ZM7.72976 21.4487C7.72976 28.6434 13.595 34.5555 20.774 34.5712C28.0781 34.5868 33.959 28.7216 33.959 21.4331C33.959 14.2541 28.0781 8.3576 20.8835 8.3576C13.6263 8.32631 7.7454 14.1915 7.72976 21.4487Z" fill="#8B5CF6"/>
<path d="M30.6586 18.711C30.5491 18.8518 30.4084 19.149 30.1738 19.3836C29.032 20.5253 27.8746 21.6671 26.7016 22.7776C26.3887 23.0748 26.3105 23.3563 26.3887 23.7473C26.6859 25.3739 26.9831 27.0005 27.2177 28.6428C27.2646 28.9712 27.1082 29.4717 26.8736 29.6438C26.639 29.8315 26.1072 29.8315 25.81 29.6907C24.3086 28.9556 22.8227 28.1579 21.3525 27.3603C21.0084 27.1726 20.7425 27.1569 20.3828 27.3446C18.9595 28.1267 17.5205 28.8618 16.0973 29.6125C15.6906 29.8315 15.2683 30.0035 14.846 29.6907C14.4237 29.3779 14.4237 28.9712 14.5019 28.4864C14.7991 26.9223 15.0337 25.3426 15.3309 23.7629C15.4091 23.3406 15.3309 23.0435 15.0024 22.7307C13.8137 21.6202 12.672 20.4784 11.5146 19.3523C11.1861 19.0395 10.9359 18.711 11.1079 18.2262C11.28 17.757 11.6397 17.6162 12.1089 17.5536C13.7043 17.3347 15.3152 17.0844 16.9106 16.8654C17.3329 16.8029 17.5831 16.6308 17.7708 16.2242C18.4277 14.8165 19.1472 13.4245 19.8197 12.0325C20.0387 11.5946 20.2889 11.2036 20.8363 11.1879C21.415 11.1723 21.6653 11.5946 21.8999 12.0482C22.5881 13.4558 23.3076 14.8322 23.9488 16.2555C24.1521 16.709 24.465 16.8185 24.8873 16.8811C26.5139 17.1001 28.1248 17.3347 29.7515 17.5849C30.3145 17.6788 30.6743 18.0698 30.6586 18.711ZM25.0906 27.2195C24.856 25.8588 24.6683 24.6075 24.418 23.3719C24.2929 22.7776 24.4337 22.324 24.8873 21.9173C25.6849 21.1822 26.4669 20.4002 27.2333 19.6338C27.3585 19.5087 27.4679 19.3679 27.64 19.1803C26.4044 18.9926 25.2783 18.7736 24.1365 18.6798C23.2763 18.6015 22.7601 18.2418 22.4317 17.4441C21.9781 16.3806 21.415 15.364 20.8676 14.2378C20.7269 14.5037 20.633 14.6601 20.5392 14.8322C20.0543 15.8019 19.5538 16.7716 19.1002 17.7726C18.8656 18.2887 18.5059 18.5546 17.9428 18.6172C17.2859 18.6954 16.629 18.7892 15.9721 18.8831C15.3622 18.9769 14.7365 19.0708 14.2047 19.149C15.0806 20.0718 15.9096 20.9946 16.7854 21.8704C17.239 22.3084 17.3954 22.7619 17.2703 23.3876C17.0201 24.6232 16.8324 25.8744 16.6134 27.2195C17.7552 26.6252 18.85 26.109 19.8823 25.4834C20.5705 25.0767 21.1492 25.0924 21.8373 25.499C22.8696 26.109 23.9332 26.6252 25.0906 27.2195Z" fill="#8B5CF6"/>
</g>
</svg>
