<svg width="57" height="56" viewBox="0 0 57 56" fill="none" xmlns="http://www.w3.org/2000/svg">
<path d="M18.4579 35.8322C15.4535 34.6327 12.5849 33.4788 9.73152 32.3249C7.04416 31.2468 4.3568 30.1536 1.66945 29.0908C1.20143 28.9086 0.808891 28.6808 0.823989 28.1038C0.839086 27.5572 1.23162 27.3447 1.66945 27.1625C6.99887 25.0216 12.3132 22.8807 17.6426 20.7399C17.8691 20.6488 18.0955 20.5577 18.4428 20.4058C18.171 20.2844 18.0049 20.2084 17.8238 20.1325C12.4793 17.9765 7.13475 15.8356 1.80533 13.6796C1.72984 13.6492 1.66945 13.6188 1.59396 13.5885C1.14104 13.4366 0.823989 13.1785 0.808891 12.6623C0.808891 12.146 1.12594 11.9031 1.57886 11.7209C3.11881 11.1136 4.65875 10.491 6.1836 9.86851C13.521 6.92292 20.8433 3.97733 28.1807 1.01655C28.6336 0.834349 29.0261 0.819165 29.479 1.00137C38.3111 4.5543 47.1431 8.10723 55.9752 11.6602C56.4281 11.8424 56.8508 12.0549 56.8508 12.6319C56.8508 13.2089 56.4432 13.4366 55.9752 13.6188C55.8695 13.6644 55.7638 13.7099 55.6581 13.7403C50.4193 15.8508 45.1805 17.9461 39.9416 20.0566C39.7454 20.1325 39.5491 20.2388 39.232 20.3755C40.1077 20.7399 40.8626 21.0435 41.6174 21.3472C46.343 23.2451 51.0836 25.1583 55.8091 27.0562C56.0054 27.1321 56.2016 27.208 56.3828 27.2991C57.0169 27.6635 57.0169 28.4986 56.3828 28.8782C56.2016 28.9845 56.0054 29.0452 55.8091 29.1211C50.5099 31.262 45.1956 33.3877 39.8963 35.5286C39.7152 35.6045 39.534 35.6956 39.232 35.8171C40.0926 36.1663 40.8475 36.4851 41.6174 36.7888C46.343 38.6867 51.0836 40.5998 55.8091 42.4978C56.0054 42.5737 56.2016 42.6496 56.3828 42.7407C57.0169 43.1051 57.0169 43.9402 56.3828 44.3198C56.1563 44.4564 55.8997 44.5475 55.6581 44.6386C47.0224 48.1157 38.3715 51.5775 29.7357 55.0697C29.0865 55.3278 28.5581 55.3126 27.9089 55.0545C19.1826 51.5319 10.4562 48.0246 1.72984 44.5172C1.65435 44.4868 1.59396 44.4564 1.51847 44.4261C1.09574 44.2742 0.793794 44.0009 0.808891 43.5151C0.808891 43.0292 1.11084 42.7711 1.53357 42.6041C4.08505 41.5868 6.63653 40.5543 9.17291 39.537C12.0565 38.3831 14.9251 37.2139 17.8087 36.06C17.9898 36.0448 18.1559 35.9689 18.4579 35.8322ZM4.17563 12.6623C4.50778 12.8141 4.68895 12.9052 4.88522 12.9811C12.7057 16.1241 20.5262 19.2671 28.3467 22.3949C28.6336 22.5163 29.0563 22.5012 29.3432 22.3797C37.1486 19.2671 44.954 16.1241 52.7594 12.9811C52.9557 12.9052 53.1519 12.7989 53.4388 12.6774C53.1821 12.556 53.0161 12.4801 52.85 12.4193C44.9993 9.26117 37.1486 6.08783 29.2828 2.94485C29.011 2.83857 28.6185 2.83857 28.3316 2.96003C21.7642 5.57159 15.1817 8.22869 8.5992 10.8706C7.18004 11.4476 5.74577 12.0246 4.17563 12.6623ZM53.4388 28.119C53.2576 28.0279 53.167 27.9824 53.0765 27.9368C47.747 25.796 42.4327 23.6551 37.1033 21.5294C36.8768 21.4383 36.5447 21.4687 36.3182 21.5598C34.0838 22.4404 31.8494 23.3362 29.6149 24.2624C29.1016 24.475 28.6336 24.4902 28.1052 24.2776C25.8858 23.3514 23.6514 22.4556 21.4019 21.575C21.1452 21.4839 20.798 21.4535 20.5564 21.5446C15.2572 23.6551 9.97308 25.7808 4.68895 27.9065C4.56817 27.952 4.44739 28.0431 4.26622 28.1494C4.49268 28.2557 4.64366 28.3164 4.79463 28.3772C12.6604 31.5505 20.5413 34.7087 28.4222 37.8668C28.6789 37.9731 29.0563 37.9579 29.313 37.8516C37.1486 34.7087 44.9842 31.5505 52.8198 28.4075C53.001 28.3316 53.167 28.2405 53.4388 28.119ZM53.4388 43.5758C53.2425 43.4847 53.1217 43.424 53.0161 43.3784C47.7168 41.2375 42.4025 39.1119 37.0882 36.9862C36.8617 36.8951 36.5296 36.9254 36.3031 37.0165C34.0234 37.9124 31.7588 38.8234 29.4941 39.7496C29.0261 39.9469 28.6185 39.9318 28.1505 39.7344C25.9009 38.8082 23.6514 37.9124 21.4019 37.0165C21.1452 36.9254 20.798 36.8951 20.5564 36.9862C15.2572 39.0967 9.97308 41.2224 4.68895 43.348C4.56817 43.3936 4.44739 43.4847 4.26622 43.591C4.52288 43.7125 4.71915 43.8036 4.90031 43.8795C12.7208 47.0224 20.5413 50.1654 28.3618 53.2932C28.6487 53.4147 29.0714 53.3995 29.3583 53.278C37.1637 50.1654 44.9691 47.0224 52.7594 43.8795C52.9557 43.8036 53.1519 43.7124 53.4388 43.5758Z" fill="#8B5CF6"/>
</svg>
