<svg width="22" height="23" viewBox="0 0 22 23" fill="none" xmlns="http://www.w3.org/2000/svg">
<path d="M12.0572 3.72559C16.2983 3.72559 20.2213 7.11845 20.9635 11.7836C21.8117 16.979 18.3128 21.8562 13.1175 22.5984C9.93669 23.1285 7.17999 22.1743 4.8474 19.9477C4.63534 19.7357 4.52932 19.4176 4.63534 19.0995C4.74137 18.8874 4.95343 18.6754 5.27151 18.5694C5.58959 18.5694 5.80164 18.6754 6.0137 18.8874C7.07397 19.9477 8.45232 20.6899 9.93669 21.008C14.0717 21.9622 18.3128 19.2055 19.2671 14.9644C20.2213 10.6173 17.4646 6.27023 13.1175 5.42202C10.3608 4.89188 8.02821 5.63407 6.0137 7.54256C5.90767 7.75461 5.58959 7.86064 5.27151 7.86064C5.05945 7.86064 4.74137 7.64859 4.63534 7.3305C4.52932 7.01242 4.63534 6.69434 4.8474 6.48229C5.90767 5.42202 7.07397 4.67983 8.34629 4.25572C9.40656 3.93764 10.4668 3.72559 12.0572 3.72559Z" fill="white"/>
<path d="M6.43863 14.0099C6.3326 14.0099 6.22657 14.0099 6.22657 14.0099C4.63617 14.0099 2.93974 14.0099 1.34933 14.0099C0.925224 14.0099 0.71317 13.7979 0.607143 13.4798C0.501116 13.1617 0.607143 12.8436 0.925224 12.6316C1.13728 12.5255 1.2433 12.5255 1.45536 12.5255C3.04576 12.5255 4.63617 12.5255 6.3326 12.5255C6.43863 12.5255 6.43863 12.5255 6.65068 12.5255C6.22657 12.2075 5.90849 11.8894 5.59041 11.4653C5.37836 11.2532 5.27233 10.9351 5.37836 10.617C5.37836 10.299 5.59041 10.1929 5.90849 10.0869C6.12055 10.0869 6.43863 10.0869 6.54466 10.299C7.39287 11.1472 8.13506 11.8894 8.98328 12.7376C9.30136 13.0557 9.30136 13.4798 8.98328 13.7979C8.13506 14.6461 7.39287 15.3883 6.54466 16.2365C6.22657 16.5546 5.69644 16.5546 5.48439 16.2365C5.1663 15.9184 5.1663 15.4943 5.48439 15.1762C5.80247 14.7521 6.12055 14.434 6.43863 14.0099Z" fill="white"/>
<path d="M10.7861 10.4051C10.7861 9.55693 10.7861 8.60268 10.7861 7.75447C10.7861 7.22433 11.1042 6.90625 11.6343 6.90625C12.0585 6.90625 12.4826 7.22433 12.4826 7.75447C12.4826 9.34487 12.4826 11.0413 12.4826 12.6317C12.4826 12.7377 12.4826 12.8438 12.5886 12.9498C13.7549 14.1161 14.9212 15.2824 16.0875 16.4487C16.6176 16.9788 16.4056 17.615 15.7694 17.827C15.4513 17.9331 15.2393 17.827 15.0272 17.615C13.6489 16.3427 12.3765 14.9643 10.9982 13.692C10.7861 13.4799 10.7861 13.2679 10.7861 13.0558C10.7861 12.3136 10.7861 11.3594 10.7861 10.4051Z" fill="white"/>
<path d="M11.633 0.544922C12.1631 0.544922 12.6932 0.544922 13.1173 0.544922C13.6475 0.544922 13.9656 0.863003 13.9656 1.39314C13.9656 1.81725 13.6475 2.13533 13.1173 2.13533C12.0571 2.13533 11.1028 2.13533 10.0426 2.13533C9.51242 2.13533 9.19434 1.81725 9.19434 1.28711C9.19434 0.863003 9.61844 0.544922 10.0426 0.544922C10.5727 0.544922 11.1028 0.544922 11.633 0.544922Z" fill="white"/>
</svg>
