<svg width="46" height="60" viewBox="0 0 46 60" fill="none" xmlns="http://www.w3.org/2000/svg">
<g opacity="0.5">
<path d="M5.8821 59.7494C5.12597 59.4864 4.30811 59.3163 3.62914 58.9296C1.4379 57.6921 0.342285 55.7432 0.342285 53.2219C0.342285 47.4369 0.342285 41.6519 0.357716 35.8515C0.357716 27.4524 0.373148 19.0688 0.373148 10.6697C0.373148 7.87006 1.54592 5.73549 4.10751 4.54446C4.94079 4.15776 5.91296 4.04949 6.83883 3.95668C7.73385 3.86387 8.64429 3.94121 9.57016 3.94121C9.58559 3.64732 9.58559 3.39984 9.61646 3.15235C9.77077 1.57463 10.9744 0.460938 12.5638 0.460938C19.4307 0.460938 26.3131 0.460938 33.18 0.460938C34.9237 0.460938 36.1119 1.65197 36.1582 3.38437C36.1582 3.53905 36.1582 3.69373 36.1582 3.92575C36.6057 3.92575 37.0223 3.91028 37.439 3.92575C38.4883 3.98762 39.5685 3.92575 40.5869 4.15776C43.3646 4.79195 45.3089 7.28228 45.3706 10.1438C45.4015 11.5205 45.3706 12.8817 45.3706 14.2583C45.3552 27.174 45.3398 40.0742 45.3398 52.9899C45.3398 55.8669 44.0898 57.986 41.4665 59.2235C40.9573 59.4555 40.3863 59.5792 39.8308 59.7494C28.5197 59.7494 17.2086 59.7494 5.8821 59.7494ZM9.52387 7.40602C8.73688 7.40602 7.93445 7.40602 7.13203 7.40602C5.00252 7.40602 3.84518 8.55064 3.84518 10.6852C3.82974 24.8229 3.81431 38.976 3.81431 53.1136C3.81431 55.0626 5.00252 56.2536 6.93142 56.2536C17.5327 56.2536 28.1494 56.2536 38.7506 56.2536C39.013 56.2536 39.2907 56.2536 39.5531 56.1917C41.0499 55.8824 41.8832 54.7223 41.8986 53.0054C41.914 39.2853 41.9295 25.5653 41.9295 11.8453C41.9295 11.2885 41.9449 10.7316 41.9295 10.1593C41.8832 8.95281 41.0807 7.76178 39.9234 7.5607C38.7198 7.34415 37.4544 7.40602 36.2353 7.34415C36.2045 7.54523 36.189 7.59164 36.189 7.65351C36.0965 9.84995 35.0317 10.8708 32.8559 10.8708C29.7388 10.8708 26.6217 10.8708 23.5046 10.8708C19.8782 10.8708 16.2673 10.8708 12.641 10.8708C11.283 10.8708 10.1874 10.1284 9.80163 8.92187C9.64732 8.4733 9.61646 7.97833 9.52387 7.40602ZM13.0885 7.37508C19.6468 7.37508 26.1433 7.37508 32.6707 7.37508C32.6707 6.21499 32.6707 5.1013 32.6707 3.98762C26.1279 3.98762 19.6159 3.98762 13.0885 3.98762C13.0885 5.11677 13.0885 6.21499 13.0885 7.37508Z" fill="#8B5CF6"/>
<path d="M29.6776 43.3066C31.6528 43.3066 33.6434 43.3066 35.6186 43.3066C36.7451 43.3066 37.5166 44.0027 37.5321 45.0236C37.5475 46.0599 36.7605 46.7869 35.6032 46.7869C31.6219 46.7869 27.6407 46.7869 23.6594 46.7869C22.5021 46.7869 21.6996 46.0599 21.7151 45.039C21.7151 44.0182 22.5175 43.3066 23.6903 43.3066C25.6809 43.3066 27.687 43.3066 29.6776 43.3066Z" fill="#8B5CF6"/>
<path d="M29.6004 23.6162C27.6252 23.6162 25.6346 23.6162 23.6594 23.6162C22.5021 23.6162 21.6996 22.8892 21.7151 21.8683C21.7305 20.8629 22.5175 20.1514 23.6285 20.1514C27.6098 20.1514 31.5911 20.1514 35.5723 20.1514C36.6834 20.1514 37.4858 20.8784 37.4858 21.8683C37.5012 22.8892 36.6834 23.6162 35.5414 23.6162C33.5663 23.6162 31.5911 23.6162 29.6004 23.6162Z" fill="#8B5CF6"/>
<path d="M29.585 35.202C27.6252 35.202 25.6655 35.202 23.7057 35.202C22.5329 35.202 21.7305 34.5059 21.7151 33.485C21.6996 32.4487 22.5175 31.7217 23.7057 31.7217C27.6715 31.7217 31.6219 31.7217 35.5877 31.7217C36.9148 31.7217 37.7635 32.789 37.3932 33.98C37.1617 34.7224 36.4982 35.202 35.634 35.202C33.628 35.202 31.6065 35.202 29.585 35.202Z" fill="#8B5CF6"/>
<path d="M12.009 33.7169C13.3978 32.3247 14.6478 31.0564 15.9286 29.8035C16.1755 29.556 16.4995 29.324 16.8236 29.2002C17.5334 28.9373 18.3358 29.2621 18.7525 29.8808C19.1845 30.5305 19.1845 31.3967 18.629 31.969C16.8544 33.7942 15.0644 35.5885 13.2435 37.3673C12.5954 38.0015 11.6541 38.0015 10.9906 37.3827C10.1727 36.6248 9.37028 35.836 8.62958 35.0162C8.01233 34.3356 8.08949 33.2837 8.7376 32.665C9.37028 32.0618 10.3733 31.9999 11.0523 32.6032C11.3763 32.9125 11.6541 33.3147 12.009 33.7169Z" fill="#8B5CF6"/>
<path d="M12.1309 45.3175C12.4395 44.9463 12.671 44.606 12.9642 44.3276C13.9981 43.2758 15.0474 42.2085 16.1121 41.1876C16.822 40.507 17.8867 40.538 18.5503 41.2186C19.1984 41.8837 19.2293 42.92 18.5503 43.6161C16.8066 45.3949 15.0628 47.1582 13.2882 48.8906C12.5784 49.5867 11.6217 49.5712 10.8964 48.8906C10.1248 48.1636 9.3687 47.4212 8.65886 46.6478C8.01075 45.9363 8.05704 44.8999 8.72059 44.2503C9.38413 43.6006 10.4026 43.5851 11.1279 44.2348C11.4365 44.5287 11.7142 44.869 12.1309 45.3175Z" fill="#8B5CF6"/>
<path d="M12.0858 21.3267C12.487 20.8626 12.7493 20.5069 13.058 20.1975C14.0764 19.1612 15.0794 18.1403 16.1288 17.1349C16.8077 16.4698 17.8725 16.5007 18.5206 17.1503C19.1842 17.8 19.2459 18.8673 18.5823 19.5479C16.8386 21.3421 15.064 23.1209 13.274 24.8688C12.5642 25.5649 11.6074 25.5339 10.8821 24.8533C10.126 24.1418 9.40075 23.3994 8.67548 22.6414C8.01194 21.9454 8.02737 20.909 8.67548 20.2439C9.33902 19.5633 10.3883 19.5169 11.1136 20.1975C11.4222 20.4914 11.6846 20.8626 12.0858 21.3267Z" fill="#8B5CF6"/>
</g>
</svg>
