<svg width="30" height="31" viewBox="0 0 30 31" fill="none" xmlns="http://www.w3.org/2000/svg">
<g opacity="0.5">
<path d="M4.94714 3.25306C4.86559 2.23365 5.11025 1.37735 5.86461 0.72493C6.37431 0.296779 6.96557 0.0725098 7.61799 0.0725098C8.43351 0.0725098 9.12671 0.39872 9.67719 1.03075C10.2073 1.66278 10.35 2.41714 10.3092 3.23267C13.5509 3.23267 16.7723 3.23267 20.014 3.23267C19.9324 2.23365 20.1771 1.35696 20.9518 0.704542C21.4615 0.276391 22.0528 0.0725098 22.7052 0.0725098C23.5207 0.0928979 24.2139 0.419108 24.744 1.05114C25.2741 1.68317 25.3964 2.41714 25.3557 3.25306C25.6207 3.25306 25.8858 3.25306 26.1304 3.25306C27.8634 3.27345 29.1886 4.35402 29.4741 6.00546C29.5148 6.25011 29.5148 6.51516 29.5148 6.7802C29.5148 8.14621 29.5148 9.5326 29.5148 10.8986C29.5148 16.118 29.5148 21.3577 29.5148 26.5771C29.5148 28.1877 28.6993 29.411 27.2925 29.88C26.9255 30.0023 26.5382 30.0634 26.1508 30.0634C18.8111 30.0634 11.4713 30.0838 4.13162 30.0634C2.19475 30.0634 0.767578 28.6363 0.767578 26.7198C0.767578 20.0121 0.767578 13.3248 0.767578 6.6171C0.767578 4.68023 2.19475 3.29383 4.13162 3.25306C4.39666 3.25306 4.66171 3.25306 4.94714 3.25306ZM28.0061 12.2034C19.4227 12.2034 10.8597 12.2034 2.2763 12.2034C2.2763 12.3054 2.25591 12.4073 2.25591 12.4889C2.25591 17.1985 2.25591 21.9286 2.25591 26.6382C2.25591 27.8208 3.01027 28.5751 4.19278 28.5751C11.4917 28.5751 18.7907 28.5751 26.0896 28.5751C26.2731 28.5751 26.477 28.5751 26.6401 28.5343C27.4964 28.3305 28.0061 27.6373 28.0061 26.679C28.0061 21.949 28.0061 17.2189 28.0061 12.4889C28.0265 12.3869 28.0265 12.3054 28.0061 12.2034ZM25.3353 4.80256C25.3149 4.86372 25.2945 4.92488 25.2741 4.98605C24.9275 6.20934 23.9285 7.00447 22.7052 7.00447C21.4615 7.00447 20.4217 6.22972 20.0955 4.98605C20.0344 4.74139 19.912 4.76178 19.7285 4.76178C16.6703 4.76178 13.6121 4.76178 10.5335 4.76178C10.4519 4.76178 10.35 4.78217 10.2684 4.78217C10.2481 4.88411 10.2073 4.98605 10.1869 5.0676C9.88107 6.12778 8.92283 6.92292 7.86265 7.00447C6.65975 7.08603 5.64034 6.47438 5.17141 5.4142C5.06947 5.18993 5.0287 4.88411 4.8452 4.80256C4.66171 4.70061 4.35589 4.78217 4.11123 4.78217C4.07045 4.78217 4.05007 4.78217 4.00929 4.78217C2.9695 4.86372 2.2763 5.5773 2.25591 6.6171C2.23552 7.92194 2.25591 9.22678 2.25591 10.5316C2.25591 10.5724 2.2763 10.6336 2.2763 10.6947C10.8597 10.6947 19.4227 10.6947 27.9857 10.6947C27.9857 9.22678 28.0061 7.77922 27.9653 6.33167C27.945 5.5773 27.2721 4.92488 26.5178 4.84333C26.1508 4.76178 25.7634 4.80256 25.3353 4.80256ZM23.8673 3.53849C23.8673 3.27345 23.8673 3.0084 23.8673 2.76374C23.8469 2.07055 23.3168 1.54045 22.644 1.56084C21.9916 1.58123 21.5023 2.09093 21.5023 2.78413C21.5023 3.27345 21.5023 3.78315 21.5023 4.27246C21.5023 4.94527 21.9916 5.45498 22.6237 5.47536C23.2965 5.49575 23.8062 5.00644 23.8469 4.33363C23.8877 4.06858 23.8673 3.80354 23.8673 3.53849ZM8.82089 3.53849C8.82089 3.25306 8.84128 2.96762 8.82089 2.70258C8.78011 2.02977 8.25002 1.54045 7.61799 1.56084C6.96557 1.58123 6.47625 2.09093 6.47625 2.76374C6.47625 3.25306 6.47625 3.76276 6.47625 4.27246C6.47625 4.96566 6.96557 5.49575 7.61799 5.49575C8.2908 5.51614 8.82089 5.00644 8.84128 4.29285C8.82089 4.04819 8.82089 3.80354 8.82089 3.53849Z" fill="black"/>
<path d="M13.9584 21.7451C15.406 20.3383 16.8127 18.9519 18.2195 17.5655C18.4234 17.3616 18.6273 17.1781 18.8312 16.9743C19.1981 16.6481 19.6467 16.6277 19.9321 16.9335C20.2379 17.2393 20.2176 17.6878 19.8506 18.0344C18.403 19.4616 16.9555 20.8684 15.4875 22.2956C15.1613 22.6218 14.8351 22.948 14.5089 23.2538C14.1215 23.6208 13.7341 23.6208 13.3468 23.2538C12.3681 22.316 11.4099 21.3577 10.4516 20.4199C10.105 20.0733 10.0643 19.6247 10.3701 19.3189C10.6759 18.9927 11.1448 18.9927 11.5118 19.3597C12.3274 20.1344 13.1429 20.9296 13.9584 21.7451Z" fill="black"/>
</g>
</svg>
