<svg width="33" height="33" viewBox="0 0 33 33" fill="none" xmlns="http://www.w3.org/2000/svg">
<g opacity="0.5">
<path d="M2.23995 2.90597C1.53669 3.60923 1.1416 4.56306 1.1416 5.55762V9.30762C1.1416 10.3022 1.53669 11.256 2.23995 11.9593C2.94321 12.6625 3.89704 13.0576 4.8916 13.0576H8.6416C9.63616 13.0576 10.59 12.6625 11.2933 11.9593C11.9965 11.256 12.3916 10.3022 12.3916 9.30762V5.55762C12.3916 4.56306 11.9965 3.60923 11.2933 2.90597C10.59 2.20271 9.63616 1.80762 8.6416 1.80762H4.8916C3.89704 1.80762 2.94321 2.20271 2.23995 2.90597Z" stroke="black" stroke-width="2" stroke-linecap="round" stroke-linejoin="round"/>
<path d="M20.99 2.90597C20.2867 3.60923 19.8916 4.56306 19.8916 5.55762V9.30762C19.8916 10.3022 20.2867 11.256 20.99 11.9593C21.6932 12.6625 22.647 13.0576 23.6416 13.0576H27.3916C28.3862 13.0576 29.34 12.6625 30.0433 11.9593C30.7465 11.256 31.1416 10.3022 31.1416 9.30762V5.55762C31.1416 4.56306 30.7465 3.60923 30.0433 2.90597C29.34 2.20271 28.3862 1.80762 27.3916 1.80762H23.6416C22.647 1.80762 21.6932 2.20271 20.99 2.90597Z" stroke="black" stroke-width="2" stroke-linecap="round" stroke-linejoin="round"/>
<path d="M2.23995 21.656C1.53669 22.3592 1.1416 23.3131 1.1416 24.3076V28.0576C1.1416 29.0522 1.53669 30.006 2.23995 30.7093C2.94321 31.4125 3.89704 31.8076 4.8916 31.8076H8.6416C9.63616 31.8076 10.59 31.4125 11.2933 30.7093C11.9965 30.006 12.3916 29.0522 12.3916 28.0576V24.3076C12.3916 23.3131 11.9965 22.3592 11.2933 21.656C10.59 20.9527 9.63616 20.5576 8.6416 20.5576H4.8916C3.89704 20.5576 2.94321 20.9527 2.23995 21.656Z" stroke="black" stroke-width="2" stroke-linecap="round" stroke-linejoin="round"/>
<path d="M20.99 21.656C20.2867 22.3592 19.8916 23.3131 19.8916 24.3076V28.0576C19.8916 29.0522 20.2867 30.006 20.99 30.7093C21.6932 31.4125 22.647 31.8076 23.6416 31.8076H27.3916C28.3862 31.8076 29.34 31.4125 30.0433 30.7093C30.7465 30.006 31.1416 29.0522 31.1416 28.0576V24.3076C31.1416 23.3131 30.7465 22.3592 30.0433 21.656C29.34 20.9527 28.3862 20.5576 27.3916 20.5576H23.6416C22.647 20.5576 21.6932 20.9527 20.99 21.656Z" stroke="black" stroke-width="2" stroke-linecap="round" stroke-linejoin="round"/>
</g>
</svg>
