<svg width="40" height="33" viewBox="0 0 40 33" fill="none" xmlns="http://www.w3.org/2000/svg">
<path opacity="0.5" d="M29.5019 31.0725H38.8769V27.3225C38.8769 26.1535 38.5126 25.0136 37.8347 24.0612C37.1568 23.1088 36.1991 22.3912 35.0946 22.0083C33.9901 21.6254 32.7937 21.596 31.6718 21.9244C30.5499 22.2528 29.5581 22.9226 28.8344 23.8406M29.5019 31.0725H10.752M29.5019 31.0725V27.3225C29.5019 26.0925 29.2657 24.9169 28.8344 23.8406M28.8344 23.8406C28.1382 22.1006 26.9365 20.609 25.3844 19.5584C23.8324 18.5077 22.0012 17.9462 20.127 17.9462C18.2527 17.9462 16.4215 18.5077 14.8695 19.5584C13.3174 20.609 12.1157 22.1006 11.4195 23.8406M10.752 31.0725H1.37695V27.3225C1.37704 26.1535 1.74133 25.0136 2.41919 24.0612C3.09705 23.1088 4.0548 22.3912 5.1593 22.0083C6.26379 21.6254 7.46016 21.596 8.58209 21.9244C9.70401 22.2528 10.6958 22.9226 11.4195 23.8406M10.752 31.0725V27.3225C10.752 26.0925 10.9882 24.9169 11.4195 23.8406M25.752 6.69751C25.752 8.18935 25.1593 9.62009 24.1044 10.675C23.0495 11.7299 21.6188 12.3225 20.127 12.3225C18.6351 12.3225 17.2044 11.7299 16.1495 10.675C15.0946 9.62009 14.502 8.18935 14.502 6.69751C14.502 5.20567 15.0946 3.77493 16.1495 2.72003C17.2044 1.66514 18.6351 1.07251 20.127 1.07251C21.6188 1.07251 23.0495 1.66514 24.1044 2.72003C25.1593 3.77493 25.752 5.20567 25.752 6.69751ZM37.0019 12.3225C37.0019 13.3171 36.6069 14.2709 35.9036 14.9742C35.2003 15.6774 34.2465 16.0725 33.2519 16.0725C32.2574 16.0725 31.3036 15.6774 30.6003 14.9742C29.897 14.2709 29.5019 13.3171 29.5019 12.3225C29.5019 11.3279 29.897 10.3741 30.6003 9.67086C31.3036 8.9676 32.2574 8.57251 33.2519 8.57251C34.2465 8.57251 35.2003 8.9676 35.9036 9.67086C36.6069 10.3741 37.0019 11.3279 37.0019 12.3225ZM10.752 12.3225C10.752 13.3171 10.3569 14.2709 9.6536 14.9742C8.95034 15.6774 7.99651 16.0725 7.00195 16.0725C6.00739 16.0725 5.05356 15.6774 4.3503 14.9742C3.64704 14.2709 3.25195 13.3171 3.25195 12.3225C3.25195 11.3279 3.64704 10.3741 4.3503 9.67086C5.05356 8.9676 6.00739 8.57251 7.00195 8.57251C7.99651 8.57251 8.95034 8.9676 9.6536 9.67086C10.3569 10.3741 10.752 11.3279 10.752 12.3225Z" stroke="#3F3F46" stroke-width="2" stroke-linecap="round" stroke-linejoin="round"/>
</svg>
