<svg width="30" height="30" viewBox="0 0 30 30" fill="none" xmlns="http://www.w3.org/2000/svg">
<g opacity="0.5">
<path d="M13.8421 22.3817C14.4781 23.0743 15.0975 23.7419 15.7 24.4011C16.2691 24.0674 16.4198 24.084 16.8466 24.4929C17.9095 25.5193 18.9808 26.5541 20.0437 27.5805C20.4621 27.9893 20.4621 28.2397 20.0604 28.6653C19.7089 29.0241 19.3658 29.3829 19.0142 29.7417C18.6627 30.0922 18.3698 30.0922 18.0099 29.7501C16.9136 28.6903 15.8172 27.6305 14.7208 26.5708C14.3526 26.2119 14.3275 26.0033 14.5618 25.6445C13.9425 24.9686 13.3399 24.3177 12.7206 23.6418C11.0719 24.9602 9.24737 25.4526 7.22202 25.0437C5.68208 24.7349 4.41833 23.9338 3.45587 22.6821C1.51421 20.1704 1.74018 16.6072 3.98313 14.3458C6.21771 12.0928 9.79137 11.8174 12.3524 13.7116C14.9217 15.6226 15.8591 19.386 13.8421 22.3817ZM8.53599 23.3831C11.0719 23.3831 13.1307 21.3387 13.1223 18.8186C13.1223 16.2985 11.0551 14.254 8.52762 14.254C5.99174 14.254 3.94965 16.2901 3.94965 18.8186C3.94965 21.3553 5.99174 23.3831 8.53599 23.3831Z" fill="black"/>
<path d="M29.8362 1.36153C29.8278 2.5131 28.857 3.21405 27.8946 2.89695C27.6937 2.83019 27.5765 2.87192 27.4342 3.00543C26.0784 4.24044 24.7143 5.47545 23.3501 6.70211C23.1911 6.84397 23.1408 6.9608 23.1994 7.17776C23.3919 7.97885 22.8395 8.79662 22.0194 8.93848C21.1824 9.08868 20.379 8.50456 20.2953 7.66175C20.2786 7.46148 20.2116 7.353 20.0191 7.26955C18.8474 6.77722 17.6757 6.27654 16.504 5.76751C16.3367 5.69241 16.2195 5.68407 16.0521 5.80924C15.5834 6.1764 15.0562 6.23481 14.5205 5.98447C14.3532 5.90937 14.2611 5.93441 14.1356 6.03454C12.8132 7.0359 11.4909 8.03726 10.1602 9.03862C10.0179 9.1471 9.97605 9.24723 9.99279 9.42247C10.0932 10.2987 9.55759 10.9913 8.70393 11.1164C7.92559 11.2249 7.1891 10.6658 7.06357 9.83136C7.03846 9.65612 6.96313 9.58936 6.81249 9.53095C5.63243 9.09703 4.46074 8.67145 3.28905 8.22919C3.13003 8.17077 3.0296 8.19581 2.90406 8.31263C2.36006 8.77159 1.64031 8.80497 1.07957 8.41277C0.510465 8.01222 0.292865 7.29458 0.535573 6.66039C0.769911 6.05123 1.42271 5.65069 2.0504 5.71744C2.77015 5.80089 3.28068 6.30157 3.40622 7.01921C3.42295 7.111 3.51502 7.23617 3.60708 7.26955C4.80388 7.72851 6.00904 8.17077 7.21421 8.61304C7.2979 8.64642 7.44018 8.61304 7.50713 8.55463C8.02603 8.1207 8.58676 8.05395 9.20609 8.31263C9.28141 8.34601 9.41532 8.33767 9.4739 8.2876C10.8465 7.26121 12.2106 6.23481 13.5748 5.19173C13.6418 5.14166 13.6836 4.9998 13.6752 4.90801C13.5748 4.02348 14.1021 3.28915 14.9223 3.18901C15.7927 3.08053 16.4957 3.61459 16.6128 4.50747C16.638 4.69105 16.7049 4.7745 16.8639 4.84125C18.044 5.34193 19.224 5.84261 20.4041 6.35998C20.5799 6.43508 20.6887 6.42674 20.8477 6.30157C21.2578 5.96778 21.7348 5.9344 22.2453 6.06792C22.3625 6.1013 22.5383 6.06792 22.6219 6.00116C24.0196 4.74946 25.4089 3.48108 26.8066 2.22938C26.9488 2.10421 26.9405 1.98738 26.907 1.82049C26.7898 1.23636 26.9488 0.718996 27.4259 0.343486C27.9113 -0.0403681 28.4553 -0.0987807 29.016 0.176593C29.56 0.443622 29.8278 0.902578 29.8362 1.36153Z" fill="black"/>
<path d="M29.9026 14.2039C29.9026 16.4487 29.9026 18.7017 29.9026 20.9464C29.9026 21.5723 29.7101 21.7725 29.0824 21.7725C28.5635 21.7725 28.0362 21.7809 27.5173 21.7725C27.0319 21.7642 26.8143 21.5389 26.8143 21.0549C26.8143 16.4737 26.8143 11.9008 26.8143 7.3196C26.8143 6.83561 27.0403 6.61031 27.5173 6.60196C28.0697 6.59362 28.6221 6.59362 29.1828 6.60196C29.685 6.61031 29.9026 6.82727 29.9026 7.33629C29.9026 9.63107 29.9026 11.9175 29.9026 14.2039Z" fill="black"/>
<path d="M23.2992 17.2914C23.2992 18.5265 23.2992 19.7698 23.2992 21.0048C23.2992 21.5472 23.0816 21.7642 22.5459 21.7725C22.0019 21.7809 21.4579 21.7809 20.9139 21.7725C20.4285 21.7642 20.2026 21.5472 20.2026 21.0632C20.1942 18.5348 20.1942 16.0064 20.2026 13.4779C20.2026 12.9773 20.4369 12.7603 20.9391 12.752C21.4831 12.752 22.0271 12.752 22.5711 12.752C23.0648 12.752 23.2992 12.9939 23.2992 13.4863C23.2992 14.7547 23.2992 16.0231 23.2992 17.2914Z" fill="black"/>
<path d="M15.3821 21.7809C15.5411 21.1383 15.742 20.5208 15.834 19.895C16.1772 17.5 15.4742 15.4139 13.8003 13.6698C13.6413 13.503 13.5744 13.3444 13.5827 13.1191C13.5995 12.5433 13.5827 11.9759 13.5911 11.4001C13.5995 10.8911 13.8338 10.6574 14.3443 10.6491C14.88 10.6407 15.4072 10.6407 15.9428 10.6491C16.4534 10.6574 16.7044 10.8911 16.7044 11.3918C16.7044 14.6128 16.7044 17.8422 16.7044 21.0632C16.7044 21.5389 16.4701 21.7642 15.9931 21.7809C15.7755 21.7809 15.5662 21.7809 15.3821 21.7809Z" fill="black"/>
<path d="M1.73202 21.756C1.41399 21.756 1.12944 21.781 0.861625 21.7476C0.560333 21.7142 0.384579 21.4555 0.384579 21.1134C0.37621 20.3374 0.384579 19.553 0.384579 18.7769C0.384579 16.9661 0.384579 15.1553 0.384579 13.3445C0.384579 12.7437 0.58544 12.5518 1.19639 12.5435C1.71529 12.5435 2.24255 12.5435 2.76144 12.5435C3.06273 12.5435 3.30544 12.6352 3.41424 12.919C3.53141 13.211 3.46445 13.4447 3.23011 13.695C1.15455 15.9481 0.627286 18.5266 1.60649 21.4138C1.64833 21.5223 1.68181 21.6224 1.73202 21.756Z" fill="black"/>
<path d="M10.0767 18.8103C10.0767 19.553 10.0767 20.2873 10.0767 21.03C10.0767 21.5557 9.85069 21.7727 9.3318 21.7727C8.7878 21.781 8.2438 21.781 7.6998 21.7727C7.19765 21.7643 6.97168 21.539 6.97168 21.0383C6.97168 19.5613 6.97168 18.0843 6.97168 16.6073C6.97168 16.09 7.19765 15.8647 7.71654 15.8647C8.25217 15.8563 8.77943 15.8563 9.31506 15.8647C9.85906 15.873 10.0683 16.0816 10.0683 16.6324C10.085 17.3583 10.085 18.0843 10.0767 18.8103Z" fill="black"/>
</g>
</svg>
