<svg width="33" height="33" viewBox="0 0 33 33" fill="none" xmlns="http://www.w3.org/2000/svg">
<path opacity="0.5" d="M28.2119 15.1527H4.95263M28.2119 15.1527C29.0931 15.1527 29.9383 15.5039 30.5614 16.129C31.1846 16.7541 31.5346 17.6019 31.5346 18.486V28.486C31.5346 29.3701 31.1846 30.2179 30.5614 30.843C29.9383 31.4681 29.0931 31.8193 28.2119 31.8193H4.95263C4.07139 31.8193 3.22623 31.4681 2.60309 30.843C1.97996 30.2179 1.62988 29.3701 1.62988 28.486V18.486C1.62988 17.6019 1.97996 16.7541 2.60309 16.129C3.22623 15.5039 4.07139 15.1527 4.95263 15.1527M28.2119 15.1527V11.8193C28.2119 10.9353 27.8618 10.0874 27.2387 9.46231C26.6155 8.83719 25.7704 8.486 24.8891 8.486M4.95263 15.1527V11.8193C4.95263 10.9353 5.30271 10.0874 5.92585 9.46231C6.54898 8.83719 7.39414 8.486 8.27539 8.486M24.8891 8.486V5.15267C24.8891 4.26861 24.5391 3.42077 23.9159 2.79565C23.2928 2.17053 22.4476 1.81934 21.5664 1.81934H11.5981C10.7169 1.81934 9.87173 2.17053 9.2486 2.79565C8.62546 3.42077 8.27539 4.26861 8.27539 5.15267V8.486M24.8891 8.486H8.27539" stroke="black" stroke-width="2" stroke-linecap="round" stroke-linejoin="round"/>
</svg>
