<svg width="40" height="31" viewBox="0 0 40 31" fill="none" xmlns="http://www.w3.org/2000/svg">
<g opacity="0.5">
<path d="M0.883789 29.4936C1.19464 28.8518 1.70603 28.6212 2.40795 28.6713C3.01962 28.7114 3.63129 28.6814 4.28307 28.6814C4.28307 28.4808 4.28307 28.3304 4.28307 28.17C4.28307 23.046 4.28307 17.912 4.28307 12.788C4.28307 11.7451 4.68416 11.3441 5.74706 11.3441C7.62218 11.3441 9.50732 11.3441 11.3824 11.3441C12.3852 11.3441 12.7863 11.7451 12.7863 12.7579C12.7863 17.8819 12.7863 23.0159 12.7863 28.1399C12.7863 28.3003 12.7863 28.4608 12.7863 28.6513C13.8191 28.6513 14.8319 28.6513 15.8847 28.6513C15.8847 28.4708 15.8847 28.3003 15.8847 28.1299C15.8847 21.963 15.8847 15.7962 15.8847 9.62937C15.8847 9.48899 15.8847 9.35863 15.8847 9.21825C15.9248 8.53639 16.346 8.08516 17.0278 8.08516C19.0935 8.07513 21.1591 8.07513 23.2348 8.08516C23.9267 8.08516 24.3478 8.53639 24.3879 9.21825C24.398 9.35863 24.3879 9.48899 24.3879 9.62937C24.3879 15.7862 24.3879 21.943 24.3879 28.0898C24.3879 28.2602 24.3879 28.4407 24.3879 28.6413C25.4208 28.6413 26.4235 28.6413 27.4864 28.6413C27.4864 28.4908 27.4864 28.3304 27.4864 28.17C27.4864 23.427 27.4864 18.6841 27.4864 13.9512C27.4864 12.9183 27.8775 12.5273 28.9203 12.5273C30.8355 12.5273 32.7508 12.5273 34.676 12.5273C35.5484 12.5273 35.9996 12.9685 35.9996 13.8409C35.9996 18.6039 35.9996 23.3769 35.9996 28.1399C35.9996 28.3003 35.9996 28.4608 35.9996 28.6713C36.6715 28.6713 37.3232 28.6914 37.965 28.6613C38.6669 28.6312 39.1482 28.8919 39.3989 29.5537C39.3989 29.7242 39.3989 29.9047 39.3989 30.0752C39.1181 30.7169 38.6268 30.9175 37.9349 30.9175C26.0826 30.9074 14.2202 30.9074 2.36784 30.9175C1.67595 30.9175 1.18461 30.7169 0.893816 30.0752C0.883789 29.8947 0.883789 29.6941 0.883789 29.4936ZM18.181 10.3513C18.181 16.4781 18.181 22.5647 18.181 28.6513C19.5046 28.6513 20.7981 28.6513 22.1117 28.6513C22.1117 22.5446 22.1117 16.458 22.1117 10.3513C20.7881 10.3513 19.4946 10.3513 18.181 10.3513ZM6.55928 28.6513C7.89292 28.6513 9.19648 28.6513 10.49 28.6513C10.49 23.6175 10.49 18.6139 10.49 13.6102C9.16639 13.6102 7.87286 13.6102 6.55928 13.6102C6.55928 18.6339 6.55928 23.6276 6.55928 28.6513ZM29.7726 14.7935C29.7726 19.4361 29.7726 24.0387 29.7726 28.6513C31.0962 28.6513 32.3898 28.6513 33.7034 28.6513C33.7034 24.0186 33.7034 19.4161 33.7034 14.7935C32.3797 14.7935 31.0962 14.7935 29.7726 14.7935Z" fill="black"/>
<path d="M34.5251 5.52807C34.1741 5.44785 33.9034 5.37766 33.6326 5.30746C32.9106 5.12697 32.5296 4.53536 32.7001 3.88358C32.8605 3.27191 33.4622 2.95103 34.1641 3.1215C35.3172 3.40227 36.4704 3.673 37.6235 3.9638C38.3455 4.14429 38.6764 4.67574 38.526 5.39771C38.2853 6.55086 38.0447 7.69398 37.794 8.84712C37.6436 9.52899 37.2224 9.87994 36.5907 9.84986C35.959 9.81978 35.4977 9.34849 35.5478 8.71677C35.5779 8.30565 35.6782 7.90455 35.7584 7.45332C35.6381 7.52351 35.5378 7.56362 35.4476 7.62379C34.4348 8.24548 33.412 8.85715 32.4093 9.4989C31.8979 9.81978 31.4166 9.81978 30.8951 9.51896C27.3455 7.4834 23.7857 5.4679 20.2361 3.44237C20.0155 3.32205 19.855 3.30199 19.6144 3.41229C16.0948 5.06681 12.5651 6.7113 9.05554 8.37584C8.55417 8.6165 8.11297 8.58641 7.64168 8.28559C5.79665 7.12242 3.94159 5.9793 2.09655 4.82615C1.68543 4.57547 1.46483 4.22451 1.49491 3.7432C1.52499 3.29196 1.76565 2.97109 2.17677 2.7906C2.59792 2.6101 2.97896 2.7204 3.34997 2.95103C4.96438 3.9638 6.57878 4.95651 8.19319 5.9793C8.41379 6.11968 8.57423 6.11968 8.80486 6.00938C12.2944 4.36489 15.7839 2.74046 19.2634 1.09597C19.7949 0.845287 20.2461 0.855314 20.7475 1.14611C24.257 3.15158 27.7766 5.137 31.2862 7.1525C31.5369 7.30291 31.7174 7.30291 31.958 7.14247C32.68 6.67119 33.422 6.22998 34.154 5.77875C34.2643 5.70856 34.3546 5.63837 34.5251 5.52807Z" fill="black"/>
</g>
</svg>
