<svg width="24" height="31" viewBox="0 0 24 31" fill="none" xmlns="http://www.w3.org/2000/svg">
<g opacity="0.5">
<path d="M3.54924 30.8193C3.16664 30.6863 2.75281 30.6002 2.40924 30.4045C1.30048 29.7784 0.746094 28.7922 0.746094 27.5164C0.746094 24.5892 0.746094 21.662 0.753902 18.727C0.753902 14.477 0.76171 10.2349 0.76171 5.985C0.76171 4.56836 1.35513 3.48826 2.6513 2.8856C3.07294 2.68993 3.56486 2.63515 4.03335 2.58819C4.48623 2.54122 4.94692 2.58036 5.41541 2.58036C5.42322 2.43165 5.42322 2.30642 5.43883 2.18119C5.51692 1.38286 6.12596 0.819336 6.9302 0.819336C10.4049 0.819336 13.8873 0.819336 17.362 0.819336C18.2443 0.819336 18.8455 1.422 18.869 2.2986C18.869 2.37686 18.869 2.45513 18.869 2.57253C19.0954 2.57253 19.3062 2.56471 19.5171 2.57253C20.048 2.60384 20.5946 2.57253 21.1099 2.68993C22.5154 3.01083 23.4992 4.27094 23.5305 5.71889C23.5461 6.41547 23.5305 7.10423 23.5305 7.80081C23.5227 14.3362 23.5149 20.8637 23.5149 27.399C23.5149 28.8548 22.8824 29.9271 21.555 30.5532C21.2973 30.6706 21.0084 30.7332 20.7273 30.8193C15.0039 30.8193 9.28048 30.8193 3.54924 30.8193ZM5.39198 4.33355C4.99377 4.33355 4.58774 4.33355 4.18171 4.33355C3.10418 4.33355 2.51856 4.91274 2.51856 5.99283C2.51075 13.1465 2.50294 20.308 2.50294 27.4617C2.50294 28.4478 3.10418 29.0505 4.0802 29.0505C9.44445 29.0505 14.8165 29.0505 20.1808 29.0505C20.3135 29.0505 20.454 29.0505 20.5868 29.0192C21.3442 28.8626 21.7658 28.2756 21.7736 27.4069C21.7814 20.4645 21.7892 13.5222 21.7892 6.57984C21.7892 6.29807 21.7971 6.01631 21.7892 5.72672C21.7658 5.11623 21.3598 4.51357 20.7742 4.41182C20.1651 4.30225 19.5249 4.33355 18.908 4.30225C18.8924 4.404 18.8846 4.42748 18.8846 4.45878C18.8377 5.57018 18.299 6.08675 17.198 6.08675C15.6208 6.08675 14.0435 6.08675 12.4662 6.08675C10.6313 6.08675 8.80418 6.08675 6.96924 6.08675C6.28212 6.08675 5.72774 5.71107 5.53253 5.10058C5.45445 4.8736 5.43883 4.62315 5.39198 4.33355ZM7.19568 4.3179C10.5142 4.3179 13.8014 4.3179 17.1043 4.3179C17.1043 3.73089 17.1043 3.16737 17.1043 2.60384C13.7936 2.60384 10.4986 2.60384 7.19568 2.60384C7.19568 3.17519 7.19568 3.73089 7.19568 4.3179Z" fill="black"/>
<path d="M15.5896 22.4995C16.589 22.4995 17.5963 22.4995 18.5957 22.4995C19.1657 22.4995 19.5562 22.8517 19.564 23.3683C19.5718 23.8927 19.1735 24.2605 18.5879 24.2605C16.5734 24.2605 14.5589 24.2605 12.5444 24.2605C11.9588 24.2605 11.5527 23.8927 11.5605 23.3761C11.5605 22.8595 11.9666 22.4995 12.56 22.4995C13.5672 22.4995 14.5823 22.4995 15.5896 22.4995Z" fill="black"/>
<path d="M15.5505 12.5359C14.5511 12.5359 13.5438 12.5359 12.5444 12.5359C11.9588 12.5359 11.5527 12.1681 11.5605 11.6515C11.5683 11.1427 11.9666 10.7827 12.5288 10.7827C14.5433 10.7827 16.5578 10.7827 18.5723 10.7827C19.1345 10.7827 19.5405 11.1506 19.5405 11.6515C19.5483 12.1681 19.1345 12.5359 18.5567 12.5359C17.5572 12.5359 16.5578 12.5359 15.5505 12.5359Z" fill="black"/>
<g filter="url(#filter0_d_18_68)">
<path d="M15.5427 18.3984C14.5511 18.3984 13.5594 18.3984 12.5678 18.3984C11.9744 18.3984 11.5683 18.0461 11.5605 17.5296C11.5527 17.0052 11.9666 16.6373 12.5678 16.6373C14.5745 16.6373 16.5734 16.6373 18.5801 16.6373C19.2516 16.6373 19.6811 17.1774 19.4937 17.78C19.3766 18.1557 19.0408 18.3984 18.6035 18.3984C17.5885 18.3984 16.5656 18.3984 15.5427 18.3984Z" fill="black"/>
</g>
<path d="M6.64964 17.6468C7.35238 16.9424 7.98485 16.3006 8.63293 15.6667C8.75786 15.5414 8.92183 15.424 9.08581 15.3614C9.44498 15.2284 9.85101 15.3927 10.0618 15.7058C10.2805 16.0345 10.2805 16.4728 9.99937 16.7624C9.10142 17.686 8.19567 18.5939 7.2743 19.4939C6.94635 19.8148 6.47005 19.8148 6.1343 19.5018C5.72046 19.1183 5.31444 18.7191 4.93964 18.3043C4.62731 17.9599 4.66635 17.4277 4.9943 17.1146C5.31444 16.8094 5.82197 16.7781 6.16553 17.0833C6.32951 17.2398 6.47005 17.4433 6.64964 17.6468Z" fill="black"/>
<path d="M6.71124 23.5169C6.86741 23.329 6.98453 23.1568 7.13289 23.0159C7.65604 22.4837 8.187 21.9437 8.72576 21.4271C9.08494 21.0827 9.62371 21.0984 9.95946 21.4428C10.2874 21.7793 10.303 22.3037 9.95946 22.6559C9.07714 23.556 8.19481 24.4482 7.29686 25.3248C6.93768 25.677 6.45357 25.6692 6.08659 25.3248C5.69618 24.957 5.31357 24.5813 4.9544 24.19C4.62645 23.8299 4.64987 23.3055 4.98563 22.9768C5.32138 22.6481 5.83672 22.6403 6.20371 22.969C6.35987 23.1177 6.50042 23.2899 6.71124 23.5169Z" fill="black"/>
<path d="M6.68826 11.3776C6.89127 11.1428 7.02401 10.9627 7.18018 10.8062C7.69552 10.2818 8.20305 9.76525 8.73401 9.25651C9.07757 8.91996 9.61634 8.93561 9.94428 9.26433C10.28 9.59306 10.3113 10.1331 9.97552 10.4775C9.09319 11.3854 8.19524 12.2855 7.28949 13.1699C6.93031 13.5221 6.4462 13.5064 6.07922 13.1621C5.69661 12.802 5.32963 12.4263 4.96264 12.0428C4.62689 11.6906 4.6347 11.1662 4.96264 10.8297C5.29839 10.4853 5.82935 10.4618 6.19634 10.8062C6.3525 10.9549 6.48524 11.1428 6.68826 11.3776Z" fill="black"/>
</g>
<defs>
<filter id="filter0_d_18_68" x="7.56042" y="16.6373" width="15.9774" height="9.76099" filterUnits="userSpaceOnUse" color-interpolation-filters="sRGB">
<feFlood flood-opacity="0" result="BackgroundImageFix"/>
<feColorMatrix in="SourceAlpha" type="matrix" values="0 0 0 0 0 0 0 0 0 0 0 0 0 0 0 0 0 0 127 0" result="hardAlpha"/>
<feOffset dy="4"/>
<feGaussianBlur stdDeviation="2"/>
<feComposite in2="hardAlpha" operator="out"/>
<feColorMatrix type="matrix" values="0 0 0 0 0 0 0 0 0 0 0 0 0 0 0 0 0 0 0.25 0"/>
<feBlend mode="normal" in2="BackgroundImageFix" result="effect1_dropShadow_18_68"/>
<feBlend mode="normal" in="SourceGraphic" in2="effect1_dropShadow_18_68" result="shape"/>
</filter>
</defs>
</svg>
