<svg width="35" height="31" viewBox="0 0 35 31" fill="none" xmlns="http://www.w3.org/2000/svg">
<g opacity="0.5">
<path d="M21.4849 26.9389C21.238 26.9389 21.0503 26.9389 20.8725 26.9389C17.5635 26.9389 14.2545 26.9389 10.9456 26.9389C7.84402 26.9389 5.4339 24.8942 4.94002 21.842C4.89063 21.5161 4.89063 21.1803 4.89063 20.8444C4.89063 18.8096 4.88075 16.7749 4.89063 14.7401C4.89063 14.4536 4.81161 14.2956 4.5548 14.1672C3.56704 13.6437 2.58917 13.0905 1.60141 12.5473C0.702556 12.0435 0.149414 11.3126 0.149414 10.2359C0.149414 9.16916 0.712434 8.42835 1.62117 7.93447C5.94753 5.54411 10.2739 3.15374 14.6101 0.783136C16.2597 -0.11572 17.9487 -0.145353 19.5983 0.753503C23.9839 3.14387 28.3498 5.55399 32.7157 7.98386C34.6023 9.03088 34.6023 11.4212 32.7354 12.4979C31.718 13.0807 30.6908 13.6437 29.6635 14.1968C29.4462 14.3154 29.377 14.4438 29.377 14.6907C29.3869 16.7749 29.3869 18.859 29.377 20.9432C29.3672 23.8966 27.4509 26.2376 24.5963 26.8302C24.3691 26.8796 24.1321 26.9092 23.8654 26.9487C23.8654 27.5908 23.8753 28.2328 23.8654 28.865C23.8456 29.7046 23.1344 30.2577 22.364 30.0503C21.8602 29.912 21.5145 29.4774 21.5047 28.9341C21.475 28.2822 21.4849 27.6303 21.4849 26.9389ZM23.0554 15.1154C23.2135 15.0463 23.2629 15.0167 23.3221 14.987C26.0286 13.4955 28.7449 12.004 31.4513 10.5026C31.56 10.4434 31.639 10.3248 31.7378 10.2359C31.639 10.147 31.56 10.0384 31.4513 9.97912C27.125 7.59864 22.8085 5.21815 18.492 2.83766C17.5931 2.34379 16.6745 2.34379 15.7658 2.83766C11.4592 5.20827 7.15259 7.58876 2.84598 9.96925C2.72745 10.0384 2.62868 10.147 2.52002 10.2458C2.6188 10.3446 2.7077 10.4631 2.82623 10.5224C7.12296 12.893 11.4098 15.2636 15.7065 17.6342C16.635 18.1478 17.5635 18.1478 18.492 17.6441C19.2427 17.2391 19.9835 16.8243 20.7243 16.4193C20.7935 16.3798 20.8527 16.3205 20.9614 16.2316C20.833 16.1328 20.7342 16.0637 20.6453 15.9748C19.2131 14.5425 17.7808 13.1103 16.3486 11.6879C16.0127 11.3521 15.8349 10.9669 15.9535 10.4829C16.1807 9.55439 17.2869 9.27782 17.9981 9.989C19.6082 11.5892 21.2182 13.1893 22.8184 14.7994C22.9369 14.8981 22.9962 15.0265 23.0554 15.1154ZM7.27112 15.6982C7.26124 15.8464 7.25136 15.9452 7.25136 16.0538C7.25136 17.654 7.24149 19.2541 7.25136 20.8642C7.26124 23.0767 8.76263 24.5781 10.9752 24.5781C14.3336 24.5781 17.6919 24.5781 21.0503 24.5781C21.1787 24.5781 21.317 24.5781 21.4553 24.5781C21.4553 22.6224 21.4553 20.7061 21.4553 18.7405C20.833 19.0763 20.2601 19.4023 19.6773 19.7085C17.9487 20.6271 16.23 20.6172 14.5212 19.6789C12.2198 18.4145 9.92818 17.1403 7.62671 15.876C7.51806 15.8069 7.4094 15.7674 7.27112 15.6982ZM26.9768 15.6982C26.8484 15.7575 26.7496 15.8069 26.6607 15.8563C25.831 16.3106 25.0013 16.7847 24.1716 17.2292C23.9246 17.3576 23.8555 17.5058 23.8555 17.7725C23.8654 19.906 23.8654 22.0297 23.8654 24.1633C23.8654 24.2818 23.8654 24.4003 23.8654 24.5386C24.0728 24.4991 24.221 24.4892 24.3593 24.4497C25.9792 24.0151 27.0064 22.6619 27.0163 20.9234C27.0262 19.2936 27.0163 17.6737 27.0163 16.0439C26.9966 15.9452 26.9867 15.8365 26.9768 15.6982Z" fill="black"/>
</g>
</svg>
