<svg width="54" height="54" viewBox="0 0 54 54" fill="none" xmlns="http://www.w3.org/2000/svg">
<path fill-rule="evenodd" clip-rule="evenodd" d="M54 27.1797C54 34.2413 51.1948 41.0138 46.2014 46.0071C41.2081 51.0004 34.4357 53.8057 27.374 53.8057C20.3124 53.8057 13.54 51.0004 8.54662 46.0071C3.55328 41.0138 0.748047 34.2413 0.748047 27.1797C0.748047 20.118 3.55328 13.3456 8.54662 8.35228C13.54 3.35894 20.3124 0.553711 27.374 0.553711C34.4357 0.553711 41.2081 3.35894 46.2014 8.35228C51.1948 13.3456 54 20.118 54 27.1797ZM34.0305 17.1949C34.0305 18.9604 33.3292 20.6535 32.0809 21.9018C30.8325 23.1501 29.1394 23.8514 27.374 23.8514C25.6086 23.8514 23.9155 23.1501 22.6672 21.9018C21.4188 20.6535 20.7175 18.9604 20.7175 17.1949C20.7175 15.4295 21.4188 13.7364 22.6672 12.4881C23.9155 11.2398 25.6086 10.5385 27.374 10.5385C29.1394 10.5385 30.8325 11.2398 32.0809 12.4881C33.3292 13.7364 34.0305 15.4295 34.0305 17.1949ZM27.374 30.5079C24.1876 30.5073 21.0679 31.4215 18.3858 33.1419C15.7037 34.8623 13.5719 37.3166 12.2438 40.2131C14.1165 42.3918 16.4383 44.1396 19.0499 45.3369C21.6615 46.5341 24.5011 47.1523 27.374 47.1492C30.2469 47.1523 33.0866 46.5341 35.6982 45.3369C38.3097 44.1396 40.6315 42.3918 42.5042 40.2131C41.1761 37.3166 39.0443 34.8623 36.3622 33.1419C33.6801 31.4215 30.5605 30.5073 27.374 30.5079Z" fill="#8B5CF6"/>
</svg>
