<svg width="44" height="45" viewBox="0 0 44 45" fill="none" xmlns="http://www.w3.org/2000/svg">
<path opacity="0.5" d="M15 22.5056L19.6667 27.1723L29 17.8389M43 22.5056C43 25.2634 42.4568 27.9941 41.4015 30.542C40.3461 33.0898 38.7993 35.4048 36.8492 37.3549C34.8992 39.3049 32.5842 40.8517 30.0364 41.9071C27.4885 42.9624 24.7578 43.5056 22 43.5056C19.2422 43.5056 16.5115 42.9624 13.9636 41.9071C11.4158 40.8517 9.10079 39.3049 7.15076 37.3549C5.20073 35.4048 3.65388 33.0898 2.59853 30.542C1.54318 27.9941 1 25.2634 1 22.5056C1 16.9361 3.21249 11.5946 7.15076 7.65637C11.089 3.71811 16.4305 1.50562 22 1.50562C27.5695 1.50562 32.911 3.71811 36.8492 7.65637C40.7875 11.5946 43 16.9361 43 22.5056Z" stroke="#8B5CF6" stroke-width="2" stroke-linecap="round" stroke-linejoin="round"/>
</svg>
