<svg width="45" height="45" viewBox="0 0 45 45" fill="none" xmlns="http://www.w3.org/2000/svg">
<g opacity="0.5">
<path d="M9.26374 5.96212C12.3668 3.49095 16.1046 1.94619 20.0469 1.50562V24.78H43.3213C42.8807 28.7223 41.3359 32.4601 38.8648 35.5632C36.3936 38.6662 33.0965 41.0085 29.3528 42.3204C25.6092 43.6322 21.5712 43.8604 17.7037 42.9785C13.8361 42.0967 10.2961 40.1407 7.49114 37.3358C4.68616 34.5308 2.73021 30.9908 1.84838 27.1232C0.966551 23.2557 1.1947 19.2177 2.50655 15.4741C3.81841 11.7304 6.16066 8.43329 9.26374 5.96212Z" stroke="#8B5CF6" stroke-width="2" stroke-linecap="round" stroke-linejoin="round"/>
<path d="M29.4072 15.4187H42.2509C41.2002 12.4573 39.5021 9.76766 37.2802 7.54576C35.0583 5.32386 32.3686 3.62571 29.4072 2.57507V15.4187Z" stroke="#8B5CF6" stroke-width="2" stroke-linecap="round" stroke-linejoin="round"/>
</g>
</svg>
