<svg width="45" height="45" viewBox="0 0 45 45" fill="none" xmlns="http://www.w3.org/2000/svg">
<path opacity="0.5" d="M17.515 27.1723L22.1816 22.5056M22.1816 22.5056L26.8483 17.8389M22.1816 22.5056L17.515 17.8389M22.1816 22.5056L26.8483 27.1723M43.1816 22.5056C43.1816 25.2634 42.6385 27.9941 41.5831 30.542C40.5278 33.0898 38.9809 35.4048 37.0309 37.3549C35.0808 39.3049 32.7658 40.8517 30.218 41.9071C27.6702 42.9624 24.9394 43.5056 22.1816 43.5056C19.4239 43.5056 16.6931 42.9624 14.1453 41.9071C11.5975 40.8517 9.28243 39.3049 7.3324 37.3549C5.38237 35.4048 3.83552 33.0898 2.78017 30.542C1.72482 27.9941 1.18164 25.2634 1.18164 22.5056C1.18164 16.9361 3.39413 11.5946 7.3324 7.65637C11.2707 3.71811 16.6121 1.50562 22.1816 1.50562C27.7512 1.50562 33.0926 3.71811 37.0309 7.65637C40.9691 11.5946 43.1816 16.9361 43.1816 22.5056Z" stroke="#8B5CF6" stroke-width="2" stroke-linecap="round" stroke-linejoin="round"/>
</svg>
