<svg width="17" height="17" viewBox="0 0 17 17" fill="none" xmlns="http://www.w3.org/2000/svg">
<g opacity="0.5">
<path d="M0.895681 0.978201C0.719866 1.15402 0.621094 1.39247 0.621094 1.64111V3.51611C0.621094 3.76475 0.719866 4.00321 0.895681 4.17903C1.0715 4.35484 1.30995 4.45361 1.55859 4.45361H14.6836C14.9322 4.45361 15.1707 4.35484 15.3465 4.17903C15.5223 4.00321 15.6211 3.76475 15.6211 3.51611V1.64111C15.6211 1.39247 15.5223 1.15402 15.3465 0.978201C15.1707 0.802386 14.9322 0.703613 14.6836 0.703613H1.55859C1.30995 0.703613 1.0715 0.802386 0.895681 0.978201Z" stroke="#3F3F46" stroke-linecap="round" stroke-linejoin="round"/>
<path d="M0.895681 8.4782C0.719866 8.65402 0.621094 8.89247 0.621094 9.14111V14.7661C0.621094 15.0148 0.719866 15.2532 0.895681 15.429C1.0715 15.6048 1.30995 15.7036 1.55859 15.7036H7.18359C7.43223 15.7036 7.67069 15.6048 7.84651 15.429C8.02232 15.2532 8.12109 15.0148 8.12109 14.7661V9.14111C8.12109 8.89247 8.02232 8.65402 7.84651 8.4782C7.67069 8.30239 7.43223 8.20361 7.18359 8.20361H1.55859C1.30995 8.20361 1.0715 8.30239 0.895681 8.4782Z" stroke="#3F3F46" stroke-linecap="round" stroke-linejoin="round"/>
<path d="M12.1457 8.4782C11.9699 8.65402 11.8711 8.89247 11.8711 9.14111V14.7661C11.8711 15.0148 11.9699 15.2532 12.1457 15.429C12.3215 15.6048 12.56 15.7036 12.8086 15.7036H14.6836C14.9322 15.7036 15.1707 15.6048 15.3465 15.429C15.5223 15.2532 15.6211 15.0148 15.6211 14.7661V9.14111C15.6211 8.89247 15.5223 8.65402 15.3465 8.4782C15.1707 8.30239 14.9322 8.20361 14.6836 8.20361H12.8086C12.56 8.20361 12.3215 8.30239 12.1457 8.4782Z" stroke="#3F3F46" stroke-linecap="round" stroke-linejoin="round"/>
</g>
</svg>
