<svg width="29" height="31" viewBox="0 0 29 31" fill="none" xmlns="http://www.w3.org/2000/svg">
<g opacity="0.5">
<path d="M6.69792 27.1593C6.82439 27.349 6.88763 27.5387 7.0141 27.7284C7.33028 28.2976 7.14057 28.9299 6.63468 29.2461C6.19202 29.499 5.8126 29.752 5.36995 29.9417C4.80082 30.2579 4.16845 30.0682 3.85227 29.4991C2.65077 27.349 1.38604 25.199 0.184543 23.0489C-0.13164 22.4798 0.0580695 21.7842 0.627199 21.468C1.00662 21.2151 1.38604 21.0253 1.76546 20.8356C2.39782 20.4562 3.03019 20.6459 3.40961 21.2783C3.47285 21.4048 3.53608 21.5312 3.66256 21.6577C3.97874 21.468 4.29492 21.2783 4.61111 21.0886C5.43318 20.5827 6.3185 20.0768 7.14057 19.6341C7.89941 19.2547 8.65825 18.9385 9.48033 19.065C9.79651 19.1282 10.1127 19.2547 10.4289 19.318C11.7568 19.6974 13.0848 20.14 14.4128 20.5194C15.4246 20.7724 15.9937 21.7209 15.6775 22.7327C15.6775 22.796 15.6143 22.8592 15.6143 22.9857C15.8672 22.8592 15.9937 22.796 16.1834 22.6695C17.5746 21.8474 19.0291 21.0253 20.4203 20.2033C21.1159 19.8238 21.8747 19.4444 22.6968 19.4444C23.5821 19.4444 24.2777 19.8871 24.4674 20.7092C24.7204 21.5312 24.4042 22.4165 23.6453 22.8592C20.9894 24.5034 18.3967 26.0843 15.7408 27.7284C14.8554 28.2976 13.9069 28.424 12.8951 28.1711C11.1877 27.7284 9.48033 27.2858 7.83617 26.7799C7.39352 26.7166 7.0141 26.7799 6.69792 27.1593ZM6.19202 26.274C6.38173 26.1475 6.57144 26.0843 6.69792 25.9578C7.0141 25.7049 7.33028 25.7049 7.7097 25.8313C9.48033 26.3372 11.1877 26.7799 12.9583 27.2858C13.8437 27.5387 14.6657 27.4122 15.4878 26.9063C16.879 26.021 18.2702 25.199 19.6614 24.3136C20.8629 23.5548 22.0644 22.8592 23.2027 22.1004C23.5189 21.9107 23.7086 21.468 23.5821 21.0886C23.4556 20.7092 23.2027 20.5194 22.8233 20.5194C22.6335 20.5194 22.4438 20.5194 22.3174 20.5827C21.8747 20.7724 21.432 20.8989 20.9894 21.1518C19.535 21.9739 18.0805 22.8592 16.5628 23.6813C15.8672 24.1239 15.0452 24.2504 14.2231 24.1239C13.0216 23.871 11.8833 23.5548 10.7451 23.2386C10.4289 23.1754 10.3024 22.9224 10.3656 22.6063C10.4289 22.3533 10.6818 22.2268 10.998 22.2901C11.4407 22.4165 11.8201 22.543 12.2627 22.6695C12.8319 22.796 13.401 22.9857 13.9701 23.0489C14.4128 23.1121 14.729 22.796 14.7922 22.4165C14.8554 22.0371 14.5393 21.6577 14.1598 21.5945C12.8319 21.2151 11.4407 20.8356 10.1127 20.3297C9.16414 19.9503 8.34207 20.0768 7.45676 20.5827C6.57144 21.0886 5.68613 21.5945 4.80082 22.1636C4.54787 22.2901 4.29492 22.4165 4.04198 22.6063C4.73758 23.8078 5.43318 25.0093 6.19202 26.274ZM2.33459 21.5945C2.20811 21.6577 2.14488 21.6577 2.08164 21.7209C1.8287 21.8474 1.51251 22.0371 1.25957 22.2268C0.880146 22.4798 0.880146 22.4798 1.06986 22.8592C1.70222 23.9342 2.33459 25.0725 2.96695 26.1475C3.47285 27.0961 4.04198 27.9814 4.54787 28.9299C4.67434 29.1196 4.80082 29.1829 4.99053 29.0564C5.30671 28.8667 5.62289 28.677 6.00231 28.4873C6.19202 28.3608 6.25526 28.2343 6.12879 28.0446C6.00231 27.8549 5.93908 27.6652 5.8126 27.4755C4.73758 25.6416 3.72579 23.7445 2.65077 21.9107C2.5243 21.7842 2.46106 21.7209 2.33459 21.5945Z" fill="black"/>
<path d="M13.4015 6.92355C12.5161 6.29118 12.4529 4.89998 13.8441 4.26761C13.5912 4.01467 13.3382 3.82496 13.0853 3.57201C12.5161 3.00288 12.4529 2.24404 12.8956 1.67491C13.3382 1.10578 14.0338 0.91607 14.7927 1.23225C14.8559 1.23225 14.8559 1.23225 14.9191 1.29549C15.1721 0.536651 15.6147 0.0939941 16.4368 0.0939941C17.1324 0.0939941 17.5751 0.536651 17.828 1.23225C18.0177 1.16902 18.2074 1.10578 18.4604 1.04254C19.0928 0.979307 19.6619 1.23225 19.9781 1.80138C20.2942 2.37051 20.1678 3.00288 19.7884 3.50877C19.5354 3.76172 19.2825 4.01467 18.9663 4.33085C19.5354 4.5838 19.9148 4.96322 20.0413 5.53235C20.1678 6.10147 19.9148 6.60737 19.4089 6.98679C19.7884 7.42944 20.1678 7.8721 20.5472 8.31476C21.3693 9.32654 22.1913 10.4016 22.8237 11.6031C24.1517 14.3222 23.3296 17.3576 20.8634 19.065C18.2074 20.9621 14.2868 20.8356 11.7573 18.7488C9.41755 16.8517 8.91165 13.7531 10.4926 11.0339C11.3146 9.64273 12.3264 8.44123 13.4015 7.23973C13.275 7.05002 13.3382 6.98679 13.4015 6.92355ZM16.3736 7.11326C15.8677 7.11326 15.2986 7.11326 14.7927 7.11326C14.6662 7.11326 14.5397 7.1765 14.4765 7.23973C13.275 8.5677 12.0735 9.89567 11.1882 11.4766C9.8602 13.6899 10.3029 16.2193 12.2632 17.8635C14.2235 19.4444 16.4368 19.6974 18.7766 18.8753C21.8119 17.8003 23.5193 14.4487 21.4957 11.2236C20.6104 9.7692 19.4722 8.50447 18.3339 7.23973C18.2707 7.1765 18.1442 7.11326 18.0177 7.11326C17.3854 7.11326 16.8795 7.11326 16.3736 7.11326ZM16.1839 4.26761C16.6898 4.26761 17.0059 4.26761 17.3221 4.26761C17.4486 4.26761 17.5751 4.20438 17.6383 4.14114C18.081 3.69848 18.5236 3.25583 18.9663 2.87641C19.156 2.6867 19.2192 2.43375 19.0295 2.24404C18.8398 1.99109 18.6501 1.99109 18.3971 2.11757C17.6383 2.43375 17.1324 2.24404 16.8795 1.4852C16.8162 1.23225 16.6265 1.10578 16.3736 1.10578C16.1206 1.10578 15.9942 1.23225 15.8677 1.4852C15.6147 2.1808 15.0456 2.43375 14.35 2.11757C14.0971 1.92786 13.8441 1.99109 13.7176 2.1808C13.5912 2.37051 13.5912 2.62346 13.8441 2.87641C14.0338 3.06612 14.2235 3.19259 14.35 3.3823C14.8559 4.0779 15.425 4.45732 16.1839 4.26761ZM16.3736 6.16471C17.0692 6.16471 17.7648 6.16471 18.4604 6.16471C18.7766 6.16471 18.9663 5.975 18.9663 5.65882C18.9663 5.40587 18.7766 5.21616 18.4604 5.21616C17.0692 5.21616 15.678 5.21616 14.2235 5.21616C13.9706 5.21616 13.7809 5.40587 13.7176 5.65882C13.7176 5.91176 13.9073 6.10147 14.1603 6.16471C14.2235 6.16471 14.35 6.16471 14.4132 6.16471C15.1088 6.16471 15.7412 6.16471 16.3736 6.16471Z" fill="black"/>
<path d="M22.7607 3.50885C22.9504 3.69856 23.1401 3.7618 23.2033 3.95151C23.5195 4.64711 24.0254 5.153 24.7842 5.53242C24.9107 5.59566 25.1004 5.78537 25.1004 5.97508C25.1004 6.16479 24.9739 6.3545 24.7842 6.41774C24.0886 6.73392 23.5827 7.30305 23.2033 7.99865C23.1401 8.12512 22.8871 8.31483 22.7607 8.31483C22.6342 8.31483 22.3812 8.18836 22.318 7.99865C22.0018 7.30305 21.4959 6.79715 20.7371 6.41774C20.6106 6.3545 20.4209 6.10155 20.4209 5.97508C20.4209 5.84861 20.5474 5.59566 20.7371 5.53242C21.4327 5.21624 21.9386 4.71035 22.318 3.95151C22.3812 3.7618 22.5709 3.69856 22.7607 3.50885ZM23.5195 5.97508C23.2665 5.72213 23.0136 5.46919 22.7607 5.21624C22.5077 5.46919 22.2548 5.72213 22.065 5.91184C22.318 6.16479 22.5709 6.41773 22.8239 6.67068C23.0136 6.41773 23.2665 6.16479 23.5195 5.97508Z" fill="black"/>
<path d="M8.97469 12.0457C8.78498 12.2355 8.72174 12.4252 8.53203 12.4884C7.83643 12.8046 7.33053 13.3105 6.95111 14.0693C6.88788 14.1958 6.63493 14.3855 6.50846 14.3855C6.38198 14.3855 6.12904 14.259 6.0658 14.0693C5.74962 13.3737 5.24372 12.8678 4.48488 12.4884C4.35841 12.4252 4.1687 12.1722 4.1687 12.0457C4.1687 11.9193 4.29517 11.6663 4.48488 11.6031C5.18049 11.2869 5.68638 10.781 6.0658 10.0222C6.12904 9.8957 6.38198 9.70599 6.50846 9.70599C6.63493 9.70599 6.88788 9.83247 6.95111 10.0222C7.2673 10.7178 7.83643 11.2237 8.53203 11.6031C8.72174 11.6663 8.84821 11.856 8.97469 12.0457ZM6.57169 11.3501C6.31875 11.5399 6.0658 11.856 5.87609 12.0457C6.12904 12.2987 6.38198 12.5516 6.57169 12.8046C6.82464 12.5516 7.07759 12.2987 7.33053 12.0457C7.07759 11.7928 6.7614 11.5399 6.57169 11.3501Z" fill="black"/>
<path d="M28.515 12.0458C28.3253 12.2355 28.262 12.4252 28.0723 12.4884C27.3767 12.8046 26.8708 13.3105 26.4914 14.0693C26.4282 14.1958 26.1752 14.3855 26.0487 14.3855C25.9223 14.3855 25.6693 14.259 25.6061 14.0693C25.2899 13.3737 24.784 12.8678 24.0252 12.4884C23.8987 12.4252 23.709 12.1722 23.709 12.0458C23.709 11.9193 23.8355 11.6663 24.0252 11.6031C24.7208 11.2869 25.2899 10.781 25.6061 10.0222C25.6693 9.83248 25.859 9.64277 26.0487 9.70601C26.2385 9.76924 26.4282 9.89572 26.4914 10.0222C26.8076 10.7178 27.3767 11.2237 28.0723 11.6031C28.262 11.6663 28.3885 11.8561 28.515 12.0458ZM25.3531 12.0458C25.6061 12.2987 25.859 12.5517 26.112 12.8046C26.3649 12.6149 26.6179 12.2987 26.8708 12.109C26.6179 11.8561 26.3649 11.6031 26.112 11.3502C25.859 11.5399 25.6061 11.7928 25.3531 12.0458Z" fill="black"/>
<path d="M9.85929 3.50885C10.049 3.63532 10.2387 3.7618 10.3019 3.88827C10.6181 4.64711 11.1873 5.153 11.8829 5.46919C12.0093 5.53242 12.1358 5.72213 12.1358 5.91184C12.1358 6.03832 12.0093 6.29126 11.8829 6.3545C11.124 6.73392 10.6181 7.23981 10.3019 7.93541C10.2387 8.06189 10.049 8.18836 9.85929 8.18836C9.73281 8.18836 9.47987 8.06189 9.41663 7.93541C9.03721 7.17657 8.53132 6.67068 7.83571 6.3545C7.646 6.29126 7.51953 6.10155 7.51953 5.97508C7.51953 5.84861 7.646 5.59566 7.77248 5.53242C8.53132 5.153 9.03721 4.64711 9.41663 3.88827C9.47987 3.7618 9.66958 3.69856 9.85929 3.50885ZM9.85929 6.67068C10.1122 6.41774 10.3652 6.16479 10.6181 5.91184C10.3652 5.6589 10.1122 5.40595 9.85929 5.21624C9.60634 5.46919 9.35339 5.72213 9.16368 5.91184C9.35339 6.16479 9.60634 6.48097 9.85929 6.67068Z" fill="black"/>
<path d="M2.65082 22.8591C2.65082 23.1753 2.39788 23.365 2.14493 23.365C1.89198 23.365 1.63904 23.112 1.63904 22.8591C1.63904 22.6062 1.89198 22.3532 2.14493 22.3532C2.39788 22.3532 2.65082 22.6062 2.65082 22.8591Z" fill="black"/>
<path d="M16.816 16.2194C16.7527 16.7885 16.6263 16.9782 16.3101 16.9782C15.9939 16.9782 15.8674 16.7885 15.8042 16.2194C15.6145 16.1561 15.488 16.0929 15.2983 16.0297C14.7292 15.7767 14.3497 15.3973 14.2233 14.7649C14.16 14.4488 14.2865 14.1958 14.5395 14.1326C14.7924 14.0693 15.1086 14.1958 15.1086 14.4488C15.2351 15.2076 16.4365 15.5238 17.1954 15.0179C17.5748 14.7649 17.5748 14.259 17.1954 14.0061C16.9424 13.8796 16.6895 13.8164 16.3733 13.6899C16.1204 13.6267 15.8042 13.5634 15.5512 13.437C14.7924 13.184 14.3497 12.6149 14.3497 11.9193C14.3497 11.2237 14.7924 10.5913 15.488 10.3384C15.7409 10.2751 15.8042 10.1487 15.8042 9.89572C15.8042 9.64277 15.9939 9.45306 16.2468 9.45306C16.4998 9.45306 16.7527 9.57954 16.7527 9.89572C16.7527 10.2119 16.8792 10.2751 17.1322 10.4016C17.5748 10.5913 17.9542 10.9075 18.1439 11.3502C18.3336 11.6663 18.2704 11.9825 17.9542 12.109C17.7013 12.2355 17.4483 12.109 17.2586 11.7928C16.9424 11.2237 16.2468 10.9707 15.6777 11.2869C15.4248 11.4134 15.2351 11.6031 15.2351 11.9193C15.2351 12.2355 15.4248 12.4252 15.6777 12.4884C15.9307 12.5517 16.1836 12.6149 16.3733 12.6781C16.7527 12.8046 17.0689 12.8678 17.4483 13.0576C18.0807 13.3737 18.3969 13.8796 18.3336 14.5752C18.3336 15.2708 17.891 15.6503 17.3219 15.9032C17.2586 16.0929 17.0689 16.1561 16.816 16.2194Z" fill="black"/>
</g>
</svg>
