<svg width="32" height="31" viewBox="0 0 32 31" fill="none" xmlns="http://www.w3.org/2000/svg">
<g opacity="0.5">
<path d="M8.56393 11.2015C8.56393 10.984 8.56393 10.839 8.56393 10.6939C8.56393 7.79339 8.56393 4.89284 8.56393 1.91977C8.56393 1.84726 8.56393 1.77474 8.56393 1.62972C8.56393 0.904579 8.85398 0.687037 9.50661 0.977093C11.0294 1.62972 12.5522 2.20983 14.0025 2.86245C16.9755 4.09519 19.8761 5.32792 22.8492 6.48814C23.3567 6.70568 23.3567 6.7782 23.3567 7.28579C23.3567 10.7665 23.3567 14.2471 23.3567 17.7278C23.3567 17.8728 23.3567 18.0178 23.3567 18.1629C23.5018 18.1629 23.6468 18.1629 23.7193 18.1629C25.2421 18.1629 26.7649 18.1629 28.2877 18.1629C28.8678 18.1629 29.0128 18.3079 29.0128 18.888C29.0128 22.3687 29.0128 25.8493 29.0128 29.33C29.0128 29.475 29.0128 29.62 29.0128 29.7651C29.5929 29.7651 30.173 29.7651 30.6806 29.7651C30.8257 29.7651 30.9707 29.7651 31.1157 29.7651C31.6233 29.7651 31.8409 29.9826 31.8409 30.3452C31.8409 30.7078 31.6233 30.8528 31.1157 30.8528C21.1813 30.8528 11.1744 30.8528 1.24003 30.8528C1.16752 30.8528 1.09501 30.8528 1.02249 30.8528C0.732438 30.8528 0.514897 30.6352 0.442383 30.3452C0.442383 30.0551 0.659924 29.7651 0.94998 29.7651C1.31255 29.7651 1.6026 29.7651 1.96517 29.7651C2.25523 29.7651 2.54528 29.7651 2.83534 29.7651C2.83534 29.62 2.83534 29.475 2.83534 29.33C2.83534 23.5289 2.83534 17.7278 2.83534 11.9267C2.83534 11.2741 2.98037 11.129 3.63299 11.129C5.08327 11.129 6.60606 11.129 8.05633 11.129C8.27387 11.2015 8.34639 11.2015 8.56393 11.2015ZM9.65164 2.35486C9.65164 11.5641 9.65164 20.7734 9.65164 29.9826C10.6668 29.9826 11.6095 29.9826 12.6247 29.9826C12.6247 29.8376 12.6247 29.6926 12.6247 29.62C12.6247 28.0973 12.6247 26.502 12.6247 24.9792C12.6247 24.3991 12.7697 24.254 13.3498 24.254C15.0902 24.254 16.8305 24.254 18.6434 24.254C19.2235 24.254 19.3685 24.3991 19.3685 24.9792C19.3685 26.502 19.3685 28.0247 19.3685 29.62C19.3685 29.7651 19.3685 29.9101 19.3685 29.9826C20.3837 29.9826 21.3264 29.9826 22.3416 29.9826C22.3416 29.8376 22.3416 29.7651 22.3416 29.6926C22.3416 22.4412 22.3416 15.1898 22.3416 7.93842C22.3416 7.72088 22.269 7.57585 22.0515 7.50334C18.7884 6.05306 15.5253 4.74781 12.1896 3.37005C11.392 3.00748 10.5218 2.71742 9.65164 2.35486ZM3.99556 29.9101C5.51835 29.9101 7.04114 29.9101 8.56393 29.9101C8.56393 24.0365 8.56393 18.2354 8.56393 12.3618C7.04114 12.3618 5.51835 12.3618 3.99556 12.3618C3.99556 18.1629 3.99556 24.0365 3.99556 29.9101ZM27.9976 19.3956C26.4748 19.3956 24.9521 19.3956 23.4293 19.3956C23.4293 22.8763 23.4293 26.4294 23.4293 29.9101C24.9521 29.9101 26.4748 29.9101 27.9976 29.9101C27.9976 26.3569 27.9976 22.8763 27.9976 19.3956ZM13.7124 29.9101C15.2352 29.9101 16.758 29.9101 18.2808 29.9101C18.2808 28.3148 18.2808 26.792 18.2808 25.1967C16.758 25.1967 15.2352 25.1967 13.7124 25.1967C13.7124 26.792 13.7124 28.3148 13.7124 29.9101Z" fill="black"/>
<path d="M15.9606 11.129C15.0905 11.129 14.1478 11.129 13.2776 11.129C12.8425 11.129 12.625 10.9114 12.625 10.6214C12.625 10.2588 12.8425 10.0413 13.2776 10.0413C15.0905 10.0413 16.9033 10.0413 18.6436 10.0413C19.0787 10.0413 19.2963 10.2588 19.2963 10.5489C19.2963 10.9114 19.0787 11.129 18.6436 11.129C17.7735 11.129 16.9033 11.129 15.9606 11.129Z" fill="black"/>
<path d="M15.9606 18.3079C16.9033 18.3079 17.7735 18.3079 18.7162 18.3079C19.1512 18.3079 19.3688 18.5254 19.3688 18.8155C19.3688 19.178 19.1512 19.3956 18.7162 19.3956C16.9033 19.3956 15.0905 19.3956 13.2776 19.3956C12.9151 19.3956 12.625 19.178 12.625 18.8155C12.625 18.4529 12.8425 18.3079 13.2776 18.3079C14.1478 18.3079 15.0905 18.3079 15.9606 18.3079Z" fill="black"/>
<path d="M16.0329 14.1746C16.9031 14.1746 17.8457 14.1746 18.7159 14.1746C19.151 14.1746 19.3685 14.3921 19.3685 14.6822C19.3685 15.0447 19.151 15.2623 18.7159 15.2623C16.9031 15.2623 15.0902 15.2623 13.3499 15.2623C12.9148 15.2623 12.6973 15.0447 12.6973 14.7547C12.6973 14.3921 12.9148 14.2471 13.3499 14.2471C14.2201 14.1746 15.0902 14.1746 16.0329 14.1746Z" fill="black"/>
</g>
</svg>
