<svg width="31" height="31" viewBox="0 0 31 31" fill="none" xmlns="http://www.w3.org/2000/svg">
<g opacity="0.5">
<path d="M25.9104 27.1632C25.9104 28.0844 25.9104 28.95 25.9104 29.8236C25.9104 30.308 25.7833 30.4351 25.2905 30.4351C17.1122 30.4351 8.93395 30.4351 0.747722 30.4351C0.262907 30.4351 0.135742 30.3001 0.135742 29.8156C0.135742 28.3226 0.135742 26.8217 0.135742 25.3287C0.14369 23.4704 1.14511 22.0091 2.86978 21.3262C4.72162 20.6035 6.57346 19.8808 8.43324 19.1661C8.63988 19.0867 8.75115 18.9993 8.71141 18.769C8.69552 18.642 8.70346 18.5149 8.71141 18.3799C8.76705 17.411 8.73526 16.4819 8.15507 15.6321C7.94842 15.3224 7.88484 14.9095 7.74973 14.5521C7.71794 14.4568 7.6623 14.3377 7.58282 14.3059C7.13775 14.1312 6.85163 13.7977 6.63704 13.4006C6.16017 12.5508 5.95353 11.6137 5.80252 10.6608C5.72304 10.1525 5.85815 9.69985 6.30323 9.36631C6.37476 9.31072 6.38271 9.12012 6.36681 9.001C6.16017 7.88125 6.0489 6.76151 6.20786 5.63381C6.5814 3.01313 8.01995 1.38512 10.5791 0.72598C12.0972 0.336848 13.6231 0.328906 15.1332 0.757746C16.1823 1.05952 16.9612 1.71867 17.5096 2.65576C17.5732 2.76694 17.7004 2.88606 17.8275 2.91783C18.9243 3.1799 19.6158 3.87081 19.9337 4.92702C20.0132 5.18909 20.1324 5.2288 20.3708 5.2288C23.089 5.22086 25.8071 5.22086 28.5173 5.22086C29.5982 5.22086 30.1466 5.76882 30.1466 6.84092C30.1466 13.075 30.1466 19.309 30.1466 25.5431C30.1466 26.6231 29.6141 27.1473 28.5412 27.1552C27.6669 27.1632 26.8085 27.1632 25.9104 27.1632ZM12.8999 1.34542C12.3594 1.40895 11.8111 1.43277 11.2785 1.53601C8.5763 2.06015 7.12185 3.82316 7.09006 6.57091C7.08211 7.54771 7.24107 8.50069 7.45566 9.45367C7.52719 9.77927 7.39208 10.0493 7.09801 10.089C6.7642 10.1366 6.73241 10.3352 6.74036 10.5972C6.74036 10.629 6.74036 10.6608 6.75625 10.6846C7.01058 11.4708 7.25697 12.265 7.52719 13.0512C7.59077 13.2418 7.70204 13.4403 7.97227 13.4244C8.28223 13.4006 8.3935 13.5674 8.45708 13.8532C8.69552 14.9492 9.13264 15.9657 9.84795 16.8392C11.5567 18.9596 14.3384 18.9676 16.0711 16.871C16.8102 15.9736 17.2473 14.9333 17.5017 13.8056C17.5573 13.5832 17.6447 13.3768 17.8832 13.3926C18.2726 13.4165 18.4634 13.1862 18.5667 12.8923C18.829 12.1299 19.0594 11.3517 19.282 10.5734C19.3615 10.3113 19.2502 10.1208 18.9561 10.0493C18.6223 9.96192 18.5269 9.76338 18.6144 9.4219C18.6303 9.34249 18.662 9.27101 18.6859 9.1916C18.98 8.20685 19.2263 7.21417 19.1707 6.18972C19.1469 5.76088 19.0674 5.31616 18.9164 4.91908C18.67 4.25994 18.1852 3.84698 17.454 3.79139C17.2076 3.76757 16.9771 3.71198 16.8579 3.43403C16.4844 2.62399 15.8485 2.07603 15.0379 1.72661C14.3543 1.42483 13.639 1.3613 12.8999 1.34542ZM25.9422 26.2181C26.8244 26.2181 27.6828 26.1943 28.5412 26.2261C29.0339 26.2499 29.2803 25.9561 29.2882 25.4637C29.2962 19.2296 29.2962 12.9956 29.2962 6.7615C29.2962 6.25325 29.1611 6.11825 28.6365 6.11825C25.9502 6.11825 23.2638 6.11825 20.5775 6.11825C20.4741 6.11825 20.3708 6.11825 20.2596 6.11825C20.2278 7.1824 20.0688 8.17509 19.7906 9.15189C19.7668 9.22336 19.8065 9.35043 19.8701 9.39808C20.2913 9.76338 20.4265 10.2399 20.3072 10.7402C20.1006 11.574 19.8542 12.4 19.5522 13.202C19.433 13.5276 19.1946 13.9009 18.9005 14.0597C18.4475 14.3059 18.3123 14.6712 18.1772 15.0921C18.1375 15.2112 18.1057 15.3462 18.0342 15.4495C17.3825 16.4104 17.3268 17.4984 17.4063 18.6023C17.4063 18.634 17.4142 18.6658 17.4063 18.6896C17.3586 18.9676 17.4778 19.1026 17.7401 19.1979C19.6396 19.9126 21.5471 20.6114 23.4148 21.3897C24.7977 21.9615 25.6005 23.0654 25.8548 24.5345C25.9343 25.0666 25.9104 25.6305 25.9422 26.2181ZM24.917 29.498C24.9249 29.4106 24.9329 29.3709 24.9329 29.3312C24.9329 27.9414 24.9646 26.5596 24.9249 25.1699C24.8772 23.7324 24.154 22.7239 22.8267 22.1759C22.0081 21.8344 21.1656 21.5327 20.339 21.2071C19.8622 21.0244 19.3853 20.8417 18.8925 20.6512C18.8369 20.7703 18.7972 20.8576 18.7574 20.9529C18.3441 21.9456 17.9309 22.9462 17.5096 23.9389C17.3745 24.2645 17.1758 24.3678 16.8261 24.2804C16.54 24.2089 16.2459 24.1454 15.9677 24.0501C15.7691 23.9866 15.6419 24.0183 15.5147 24.1931C15.2524 24.5584 14.9663 24.9157 14.6723 25.2731C14.553 25.416 14.5292 25.5431 14.5928 25.7258C15.0061 26.8773 15.4114 28.0367 15.8088 29.1962C15.8883 29.4265 15.9836 29.5138 16.238 29.5138C19.0197 29.5059 21.8094 29.5059 24.5911 29.5059C24.7024 29.498 24.7977 29.498 24.917 29.498ZM7.02648 20.7544C6.947 20.7782 6.87547 20.802 6.81189 20.8259C5.61972 21.2865 4.42755 21.7391 3.23538 22.2077C1.84452 22.7477 1.07358 23.8754 1.07358 25.3684C1.07358 26.639 1.07358 27.9097 1.07358 29.1724C1.07358 29.2756 1.07358 29.3788 1.07358 29.4821C1.16101 29.49 1.20075 29.498 1.24049 29.498C4.12553 29.498 7.01058 29.498 9.89563 29.5059C10.0864 29.5059 10.142 29.4185 10.1976 29.2677C10.5235 28.3226 10.8017 27.3538 11.207 26.4484C11.5249 25.7337 11.4613 25.1937 10.8971 24.6695C10.6904 24.4789 10.5712 24.1216 10.3407 24.0422C10.1102 23.9628 9.79231 24.1375 9.52209 24.2089C8.60014 24.4631 8.60014 24.4631 8.2266 23.5816C7.82921 22.6365 7.43182 21.6994 7.02648 20.7544ZM11.1593 29.4741C12.4389 29.4741 13.6708 29.4741 14.9266 29.4741C14.8948 29.3709 14.8789 29.2994 14.8551 29.22C14.4736 28.1241 14.1 27.0282 13.7026 25.9481C13.5198 25.4637 13.5516 25.0984 13.957 24.7331C14.2749 24.4551 14.4974 24.0739 14.7915 23.7007C14.251 23.5498 13.798 23.4227 13.337 23.2957C13.2337 23.2639 13.1145 23.2242 13.0191 23.248C12.4707 23.383 11.9382 23.5339 11.358 23.6927C11.4296 23.8039 11.4772 23.8833 11.5329 23.9628C11.7952 24.2963 12.0654 24.6298 12.3356 24.9554C12.5184 25.1699 12.5661 25.3922 12.4628 25.6702C12.2959 26.107 12.1608 26.5517 12.0097 26.9885C11.7316 27.8064 11.4534 28.6244 11.1593 29.4741ZM13.0271 22.1442C14.1477 21.1753 15.2524 20.2223 16.3492 19.2693C16.389 19.2296 16.4367 19.174 16.4367 19.1264C16.4446 18.7452 16.4446 18.372 16.4446 17.9749C14.1477 19.9285 11.8826 19.8967 9.60156 17.9749C9.60156 18.3958 9.59362 18.777 9.60951 19.1582C9.60951 19.2296 9.66515 19.3249 9.72078 19.3805C10.8096 20.3017 11.9064 21.2071 13.0271 22.1442ZM12.0415 22.5174C11.0242 21.6597 10.0625 20.8417 9.08496 20.0238C9.03727 19.9841 8.93395 19.9682 8.87037 19.992C8.55246 20.1032 8.25044 20.2303 7.91663 20.3653C8.32992 21.3579 8.72731 22.3268 9.13264 23.3116C10.1023 23.0495 11.0322 22.7954 12.0415 22.5174ZM18.0421 20.3256C17.7481 20.2064 17.4858 20.1032 17.2235 19.9841C17.0645 19.9047 16.9612 19.9444 16.8341 20.0555C15.9598 20.8259 15.0776 21.5962 14.1954 22.3665C14.1477 22.4062 14.108 22.4618 14.0364 22.5333C14.9663 22.8033 15.8644 23.0574 16.7705 23.3195C17.1997 22.3109 17.6129 21.3341 18.0421 20.3256Z" fill="black"/>
<path d="M26.3787 9.26309C26.0687 9.26309 25.7667 9.27103 25.4568 9.26309C25.1548 9.25515 24.9799 9.08837 24.972 8.81042C24.964 8.54041 25.1309 8.33393 25.425 8.33393C26.0608 8.31805 26.6887 8.31805 27.3245 8.33393C27.6186 8.34188 27.7855 8.54835 27.7775 8.81836C27.7696 9.08837 27.5947 9.26309 27.2927 9.27103C26.9986 9.27103 26.6887 9.26309 26.3787 9.26309Z" fill="black"/>
<path d="M26.3713 13.0115C26.0773 13.0115 25.7752 13.0194 25.4812 13.0115C25.1633 13.0036 24.9805 12.8289 24.9805 12.543C24.9805 12.2729 25.1474 12.0824 25.4494 12.0744C26.0693 12.0585 26.6972 12.0585 27.3171 12.0744C27.6112 12.0824 27.786 12.2729 27.786 12.543C27.786 12.8289 27.6032 13.0036 27.2853 13.0115C26.9833 13.0194 26.6733 13.0115 26.3713 13.0115Z" fill="black"/>
<path d="M26.3715 16.7598C26.0615 16.7598 25.7595 16.7677 25.4495 16.7598C25.1475 16.7519 24.9806 16.5771 24.9727 16.2992C24.9727 16.0292 25.1396 15.8306 25.4336 15.8227C26.0695 15.8068 26.6973 15.8068 27.3332 15.8227C27.6193 15.8306 27.7941 16.0451 27.7782 16.3071C27.7623 16.5692 27.5954 16.736 27.3173 16.7439C27.0073 16.7677 26.6894 16.7598 26.3715 16.7598Z" fill="black"/>
<path d="M26.3713 20.4526C26.0773 20.4526 25.7752 20.4605 25.4812 20.4526C25.1633 20.4446 24.9805 20.2778 24.9805 19.992C24.9805 19.7219 25.1474 19.5393 25.4494 19.5313C26.0693 19.5234 26.6972 19.5234 27.3171 19.5313C27.6191 19.5393 27.786 19.7219 27.786 19.992C27.786 20.2778 27.6032 20.4446 27.2853 20.4526C26.9833 20.4605 26.6733 20.4526 26.3713 20.4526Z" fill="black"/>
<path d="M22.6276 16.7599C22.4686 16.7599 22.3097 16.7678 22.1507 16.7599C21.8725 16.744 21.6977 16.5772 21.6897 16.3151C21.6818 16.061 21.8407 15.8466 22.111 15.8307C22.4527 15.8148 22.8024 15.8069 23.1521 15.8307C23.4224 15.8466 23.5893 16.061 23.5654 16.3151C23.5416 16.5772 23.3985 16.736 23.1283 16.7519C22.9693 16.7599 22.8024 16.7519 22.6276 16.7599Z" fill="black"/>
<path d="M22.6204 13.0115C22.4615 13.0115 22.3025 13.0195 22.1435 13.0115C21.8733 12.9957 21.7223 12.8527 21.6985 12.5906C21.6746 12.3445 21.7859 12.138 22.0402 12.1142C22.4376 12.0824 22.8509 12.0824 23.2483 12.1142C23.4867 12.138 23.5821 12.3524 23.5662 12.5827C23.5503 12.813 23.4231 12.9798 23.1847 13.0036C23.0019 13.0195 22.8112 13.0036 22.6204 13.0115Z" fill="black"/>
<path d="M22.6433 9.26305C22.4764 9.26305 22.3095 9.271 22.1346 9.26305C21.8723 9.24717 21.7134 9.07246 21.7054 8.81833C21.6975 8.55626 21.8246 8.35773 22.0949 8.34184C22.4525 8.31802 22.8102 8.31802 23.1599 8.34184C23.4222 8.35773 23.5573 8.54832 23.5652 8.81039C23.5652 9.07246 23.3904 9.24717 23.1201 9.26305C22.9612 9.271 22.8022 9.26305 22.6433 9.26305Z" fill="black"/>
</g>
</svg>
