<svg width="36" height="31" viewBox="0 0 36 31" fill="none" xmlns="http://www.w3.org/2000/svg">
<g opacity="0.5">
<path d="M0.728516 3.39782C1.00101 2.80743 1.45516 2.61668 2.09098 2.63485C3.53518 2.67118 4.97031 2.64393 6.41451 2.64393C6.54168 2.64393 6.65976 2.64393 6.84142 2.64393C6.84142 2.36236 6.84142 2.08986 6.84142 1.82645C6.84142 0.827318 7.52265 0.100673 8.4582 0.100673C9.39376 0.100673 10.0841 0.827318 10.1022 1.80829C10.1022 2.0717 10.1022 2.32602 10.1022 2.64393C10.2476 2.64393 10.3838 2.64393 10.511 2.64393C14.2259 2.64393 17.9409 2.64393 21.665 2.64393C21.774 2.64393 21.8921 2.63485 22.0011 2.64393C22.2917 2.67118 22.4643 2.84376 22.4734 3.12533C22.4915 3.39782 22.328 3.5704 22.0646 3.63398C21.9466 3.66123 21.8194 3.65215 21.6922 3.65215C17.9773 3.65215 14.2623 3.65215 10.5382 3.65215C10.402 3.65215 10.2657 3.65215 10.0932 3.65215C10.0932 3.87014 10.0932 4.06997 10.0932 4.2698C10.075 5.2326 9.36651 5.95925 8.44912 5.95925C7.54081 5.95925 6.84142 5.22352 6.82325 4.26072C6.82325 4.06997 6.82325 3.87923 6.82325 3.67032C5.12472 3.67032 3.45343 3.67032 1.7549 3.67032C1.7549 5.57776 1.7549 7.4852 1.7549 9.41081C12.6637 9.41081 23.5633 9.41081 34.4812 9.41081C34.4812 7.50337 34.4812 5.60501 34.4812 3.6794C32.8099 3.6794 31.1386 3.6794 29.4128 3.6794C29.4128 3.89739 29.4128 4.1063 29.4128 4.31521C29.3947 5.2326 28.6953 5.94108 27.8051 5.95017C26.9241 5.95925 26.1974 5.25985 26.152 4.34246C26.1429 4.11539 26.152 3.89739 26.152 3.64307C25.5525 3.64307 24.9894 3.66123 24.4262 3.63398C24.2355 3.6249 23.9902 3.52499 23.8812 3.37966C23.636 3.06175 23.8994 2.64393 24.3263 2.63485C24.9167 2.62576 25.5071 2.63485 26.152 2.63485C26.152 2.30786 26.1429 1.99903 26.152 1.68113C26.1883 0.827318 26.806 0.173337 27.6416 0.100673C28.4591 0.028008 29.213 0.554826 29.3674 1.36322C29.4401 1.75379 29.4128 2.17161 29.431 2.62576C29.5491 2.63485 29.6672 2.64393 29.7852 2.64393C31.293 2.64393 32.8008 2.64393 34.3086 2.64393C35.1261 2.64393 35.5257 3.0345 35.5257 3.8429C35.5257 12.1902 35.5257 20.5466 35.5257 28.894C35.5257 29.6751 35.1261 30.0839 34.3268 30.0839C33.2822 30.093 32.2377 30.0839 31.2022 30.0839C23.7995 30.0839 16.4059 30.0839 9.00319 30.0839C8.84877 30.0839 8.68528 30.0839 8.53087 30.0566C8.25838 30.0021 8.12213 29.8114 8.13121 29.5389C8.14938 29.2846 8.29471 29.112 8.54903 29.0756C8.69436 29.0575 8.83969 29.0575 8.9941 29.0575C17.3324 29.0575 25.6706 29.0575 34.0089 29.0575C34.1633 29.0575 34.3177 29.0575 34.4903 29.0575C34.4903 22.8447 34.4903 16.6682 34.4903 10.4735C23.5815 10.4735 12.6727 10.4735 1.7549 10.4735C1.7549 16.6591 1.7549 22.8356 1.7549 29.0575C1.90023 29.0575 2.03648 29.0575 2.16364 29.0575C3.44435 29.0575 4.72506 29.0575 6.00578 29.0575C6.13294 29.0575 6.28735 29.0302 6.3691 29.0938C6.52351 29.2119 6.72334 29.3936 6.73242 29.557C6.7415 29.7205 6.55076 29.9113 6.39635 30.0385C6.3146 30.1111 6.13294 30.0839 5.99669 30.0839C4.67057 30.0839 3.34444 30.0657 2.01831 30.093C1.40975 30.1111 0.973758 29.8931 0.728516 29.3027C0.728516 20.6647 0.728516 12.0358 0.728516 3.39782ZM7.85872 3.04359C7.85872 3.45232 7.85872 3.86106 7.85872 4.2698C7.8678 4.67854 8.10396 4.95103 8.4582 4.96011C8.80336 4.96919 9.07585 4.6967 9.08493 4.29705C9.09402 3.46141 9.09402 2.61668 9.08493 1.78104C9.07585 1.38138 8.80336 1.11798 8.44912 1.13614C8.10396 1.14522 7.87689 1.39955 7.8678 1.79012C7.84964 2.19886 7.85872 2.61668 7.85872 3.04359ZM28.4137 3.04359C28.4137 2.61668 28.4228 2.18069 28.4137 1.75379C28.4046 1.38138 28.1685 1.13614 27.8324 1.12706C27.4872 1.10889 27.2056 1.36322 27.1966 1.73562C27.1784 2.59852 27.1875 3.46141 27.1966 4.31521C27.2056 4.68762 27.4781 4.95103 27.8142 4.95103C28.1503 4.94195 28.4046 4.67854 28.4137 4.29705C28.4137 3.87923 28.4137 3.46141 28.4137 3.04359Z" fill="black"/>
<path d="M8.24932 19.7655C8.24024 18.3939 9.35746 17.2767 10.7199 17.2767C12.0824 17.2767 13.1996 18.403 13.1996 19.7655C13.1905 21.128 12.1005 22.227 10.7381 22.2361C9.36654 22.2452 8.25841 21.1461 8.24932 19.7655ZM10.729 21.2188C11.5283 21.2188 12.1732 20.5739 12.1823 19.7746C12.1914 18.9662 11.5192 18.294 10.7199 18.3031C9.92969 18.3031 9.27571 18.9571 9.26663 19.7564C9.26663 20.5648 9.91152 21.2188 10.729 21.2188Z" fill="black"/>
<path d="M20.5111 19.7836C20.5111 19.1932 20.5111 18.6028 20.5111 18.0124C20.5111 17.5764 20.6927 17.4039 21.1378 17.3948C21.4194 17.3948 21.7009 17.3948 21.9916 17.3948C23.1088 17.4039 23.8173 17.967 24.0716 19.057C24.2351 19.7745 24.1988 20.483 23.8445 21.137C23.4721 21.8273 22.8908 22.2088 22.0915 22.2179C21.7645 22.2179 21.4375 22.227 21.1105 22.2179C20.72 22.2088 20.5292 22.0271 20.5201 21.6366C20.502 21.028 20.5111 20.4013 20.5111 19.7836ZM21.5465 21.2006C22.4094 21.2551 22.7273 21.137 22.9453 20.6556C23.236 20.0107 23.236 19.3476 22.8182 18.7482C22.5003 18.3031 22.0007 18.4212 21.5465 18.4302C21.5465 19.3749 21.5465 20.2741 21.5465 21.2006Z" fill="black"/>
<path d="M4.32536 19.1569C4.91576 19.1569 5.46074 19.1569 6.03298 19.1569C6.03298 18.7209 6.03298 18.3122 6.03298 17.8944C6.03298 17.5129 6.24189 17.2676 6.55979 17.2767C6.85953 17.2858 7.05028 17.5129 7.05028 17.8853C7.05028 19.1297 7.05028 20.374 7.05028 21.6184C7.05028 21.9908 6.85953 22.2179 6.55979 22.227C6.24189 22.2361 6.04206 22.009 6.03298 21.6184C6.03298 21.1552 6.03298 20.692 6.03298 20.2106C5.46983 20.2106 4.92484 20.2106 4.32536 20.2106C4.32536 20.6011 4.32536 21.0008 4.32536 21.4095C4.32536 21.5458 4.33444 21.682 4.30719 21.8183C4.24361 22.0907 4.06195 22.2542 3.77129 22.227C3.4988 22.1997 3.33531 22.0362 3.31714 21.7638C3.29897 21.4458 3.30806 21.1279 3.30806 20.81C3.30806 19.8472 3.30806 18.8844 3.30806 17.9216C3.30806 17.5038 3.50788 17.2586 3.82579 17.2676C4.13462 17.2767 4.32536 17.5129 4.32536 17.9125C4.33444 18.3304 4.32536 18.73 4.32536 19.1569Z" fill="black"/>
<path d="M27.0058 21.2733C26.9604 21.2733 26.915 21.2824 26.8696 21.2733C26.3791 21.1825 26.0703 21.3187 25.9431 21.8546C25.8705 22.1907 25.5525 22.3088 25.2801 22.1998C25.0076 22.0908 24.8895 21.8183 25.0076 21.4913C25.489 20.2196 25.9704 18.9571 26.4518 17.6855C26.5517 17.4311 26.7424 17.2767 27.0149 17.2767C27.2874 17.2767 27.4872 17.4221 27.5872 17.6855C28.0686 18.9662 28.559 20.2469 29.0314 21.5276C29.1404 21.8273 29.0132 22.0998 28.7498 22.1998C28.4955 22.2997 28.1685 22.1998 28.114 21.9182C27.9868 21.246 27.5599 21.2006 27.024 21.2642C27.0331 21.2733 27.024 21.2733 27.0058 21.2733ZM26.588 20.2287C26.915 20.2287 27.1784 20.2287 27.4691 20.2287C27.3237 19.8472 27.1875 19.493 27.024 19.0661C26.8605 19.5021 26.7333 19.8563 26.588 20.2287Z" fill="black"/>
<path d="M31.2207 18.7573C31.466 18.3849 31.7021 18.0216 31.9383 17.6583C32.1744 17.295 32.4469 17.195 32.7194 17.3676C33.0101 17.5402 33.0283 17.8399 32.783 18.2214C32.4924 18.6756 32.1744 19.1207 31.902 19.593C31.802 19.7656 31.7385 19.9836 31.7294 20.1925C31.7021 20.6648 31.7203 21.1462 31.7203 21.6185C31.7112 22.0182 31.5114 22.2362 31.1935 22.2271C30.8847 22.218 30.7121 22.0091 30.703 21.6185C30.703 21.6094 30.703 21.5913 30.703 21.5822C30.9028 20.3378 30.5122 19.2751 29.7129 18.3395C29.6312 18.2487 29.5676 18.1397 29.5131 18.0216C29.3859 17.7673 29.4677 17.4766 29.6948 17.3404C29.9309 17.195 30.2034 17.2495 30.376 17.5039C30.6212 17.8581 30.8483 18.2214 31.0845 18.5848C31.1208 18.6483 31.1662 18.6938 31.2207 18.7573Z" fill="black"/>
<path d="M15.4157 21.2188C15.6973 21.2188 15.9425 21.2188 16.1878 21.2188C16.5602 21.2279 16.7782 21.4095 16.7873 21.7184C16.7873 22.0272 16.5783 22.227 16.2059 22.227C15.7881 22.227 15.3703 22.2361 14.9525 22.227C14.5982 22.2179 14.4075 22.0363 14.3984 21.682C14.3893 20.4013 14.3893 19.1297 14.3984 17.849C14.3984 17.5129 14.6073 17.2858 14.898 17.2767C15.1977 17.2767 15.4066 17.5038 15.4066 17.8671C15.4157 18.9662 15.4157 20.0652 15.4157 21.2188Z" fill="black"/>
<path d="M17.9954 19.7473C17.9954 19.1297 17.9954 18.503 17.9954 17.8853C17.9954 17.5129 18.1861 17.2858 18.4949 17.2767C18.7947 17.2677 19.0127 17.5038 19.0127 17.8671C19.0218 19.1297 19.0218 20.4013 19.0127 21.6639C19.0127 22.009 18.8038 22.227 18.5131 22.227C18.2043 22.2361 18.0045 22.009 17.9954 21.6457C17.9863 21.019 17.9954 20.3832 17.9954 19.7473Z" fill="black"/>
</g>
</svg>
